<svg xmlns="http://www.w3.org/2000/svg" width="77.099" height="89.496" viewBox="0 0 77.099 89.496"><defs><style>.a{fill:none;stroke:#192579;stroke-linecap:round;stroke-linejoin:round;stroke-width:3px;}.b{fill:#d2e6fc;}.c{fill:#62a0d6;}</style></defs><path class="a" d="M51.618,68.882a9.85,9.85,0,0,1-9.851,9.851H11.351A9.85,9.85,0,0,1,1.5,68.882V11.351A9.85,9.85,0,0,1,11.351,1.5H41.767a9.85,9.85,0,0,1,9.851,9.851V41.965"/><path class="a" d="M71.882,52.837A12.691,12.691,0,1,0,53.935,70.785l8.973,15.827,8.974-15.827A12.692,12.692,0,0,0,71.882,52.837Z"/><line class="a" x2="9.054" transform="translate(22.031 11.252)"/><line class="a" x2="42.407" transform="translate(6.422 87.996)"/><line class="a" y2="9.262" transform="translate(15.307 78.732)"/><line class="a" y2="9.262" transform="translate(39.381 78.732)"/><path class="b" d="M36.958,66.483h-19.8a5.572,5.572,0,0,1-5.572-5.571v-30.7a5.572,5.572,0,0,1,5.572-5.571h19.8a5.571,5.571,0,0,1,5.571,5.571v30.7a5.571,5.571,0,0,1-5.571,5.571"/><path class="a" d="M58.236,61.811a4.673,4.673,0,1,1,4.672,4.672A4.672,4.672,0,0,1,58.236,61.811Z"/><path class="c" d="M21.687,39.108V52.016l11.878-6.454Z"/></svg>