<svg xmlns="http://www.w3.org/2000/svg" width="74.485" height="73.758" viewBox="0 0 74.485 73.758"><defs><style>.a{fill:#62a0d6;}.b{fill:#d2e6fc;}.c{fill:none;stroke:#192579;stroke-linecap:round;stroke-linejoin:round;stroke-width:3px;}</style></defs><g transform="translate(0 0)"><path class="a" d="M19.37,71.829c13.4,0,13.4-56.654,26.808-56.654s13.4,56.654,26.807,56.654Z"/><path class="b" d="M10.393,71.829c8.946,0,8.946-37.812,17.892-37.812s8.946,37.812,17.892,37.812Z"/><path class="c" d="M1.5,1.5V72.258H72.985"/><ellipse class="c" cx="4.527" cy="4.575" rx="4.527" ry="4.575" transform="translate(10.789 25.373)"/><ellipse class="c" cx="4.527" cy="4.575" rx="4.527" ry="4.575" transform="translate(41.793 22.67)"/><ellipse class="c" cx="4.527" cy="4.575" rx="4.527" ry="4.575" transform="translate(57.293 4.164)"/><ellipse class="c" cx="4.527" cy="4.575" rx="4.527" ry="4.575" transform="translate(26.291 41.176)"/><line class="c" x2="7.441" y2="7.519" transform="translate(19.33 34.457)"/><line class="c" y1="10.636" x2="8.348" transform="translate(33.85 31.523)"/><line class="c" y1="10.636" x2="8.348" transform="translate(49.82 12.818)"/></g></svg>