<svg className=""  viewBox="0 0 1920 612" fill="none" xmlns="http://www.w3.org/2000/svg">
<path d="M1920 6H0V606H1920V6Z" fill="url(#paint0_linear_58_2)"/>
<path d="M1920 6H0V606H1920V6Z" fill="url(#paint1_linear_58_2)"/>
<g filter="url(#filter0_d_58_2)">
<path d="M181.5 104.5V314.5H183.5V104.5H181.5Z" fill="url(#paint2_linear_58_2)"/>
</g>
<g filter="url(#filter1_d_58_2)">
<path d="M180.5 95.5V98.5H183.5V95.5H180.5Z" fill="url(#paint3_linear_58_2)"/>
</g>
<g filter="url(#filter2_d_58_2)">
<path d="M1783.5 106.717V316.717H1785.5V106.717H1783.5Z" fill="url(#paint4_linear_58_2)"/>
</g>
<g filter="url(#filter3_d_58_2)">
<path d="M1782.5 97.7168V100.717H1785.5V97.7168H1782.5Z" fill="url(#paint5_linear_58_2)"/>
</g>
<g opacity="0.62">
<g filter="url(#filter4_d_58_2)">
<path d="M1602.5 216V6H1600.5V216H1602.5Z" fill="url(#paint6_linear_58_2)"/>
</g>
<g filter="url(#filter5_d_58_2)">
<path d="M1603.5 225V222H1600.5V225H1603.5Z" fill="url(#paint7_linear_58_2)"/>
</g>
</g>
<g filter="url(#filter6_d_58_2)">
<path d="M124.5 46.5037L124.5 173.221H126.5L126.5 46.5037H124.5Z" fill="url(#paint8_linear_58_2)"/>
</g>
<g filter="url(#filter7_d_58_2)">
<path d="M123.5 37.5V40.5H126.5V37.5H123.5Z" fill="url(#paint9_linear_58_2)"/>
</g>
<g filter="url(#filter8_d_58_2)">
<path d="M1746.5 459.504V586.221H1748.5V459.504H1746.5Z" fill="url(#paint10_linear_58_2)"/>
</g>
<g filter="url(#filter9_d_58_2)">
<path d="M1745.5 450.5V453.5H1748.5V450.5H1745.5Z" fill="url(#paint11_linear_58_2)"/>
</g>
<g opacity="0.75">
<g filter="url(#filter10_d_58_2)">
<path d="M144.5 479.287V606.004H146.5V479.287H144.5Z" fill="url(#paint12_linear_58_2)"/>
</g>
<g filter="url(#filter11_d_58_2)">
<path d="M143.5 470.283V473.283H146.5V470.283H143.5Z" fill="url(#paint13_linear_58_2)"/>
</g>
</g>
<g filter="url(#filter12_d_58_2)">
<path d="M1844.5 33.0037V159.721H1846.5V33.0037H1844.5Z" fill="url(#paint14_linear_58_2)"/>
</g>
<g filter="url(#filter13_d_58_2)">
<path d="M1843.5 24V27H1846.5V24H1843.5Z" fill="url(#paint15_linear_58_2)"/>
</g>
<path d="M415.988 238.5C415.988 219.17 400.318 203.5 380.988 203.5C361.658 203.5 345.988 219.17 345.988 238.5C345.988 257.83 361.658 273.5 380.988 273.5C400.318 273.5 415.988 257.83 415.988 238.5Z" fill="url(#paint16_linear_58_2)"/>
<mask id="mask0_58_2" style="mask-type:luminance" maskUnits="userSpaceOnUse" x="345" y="202" width="71" height="71">
<path d="M416 202.5H345.988V272.512H416V202.5Z" fill="white"/>
</mask>
<g mask="url(#mask0_58_2)">
<path d="M380.994 219.666C379.118 219.666 377.259 220.035 375.526 220.753C373.792 221.471 372.217 222.524 370.89 223.851C369.563 225.178 368.511 226.753 367.792 228.487C367.074 230.22 366.705 232.079 366.705 233.955C366.705 241.847 380.994 255.346 380.994 255.346C380.994 255.346 395.283 241.846 395.283 233.955C395.283 232.079 394.914 230.22 394.196 228.487C393.478 226.753 392.425 225.178 391.098 223.851C389.771 222.524 388.196 221.471 386.462 220.753C384.729 220.035 382.871 219.666 380.994 219.666ZM380.994 240.194C379.76 240.194 378.554 239.828 377.528 239.143C376.502 238.457 375.702 237.483 375.23 236.343C374.758 235.203 374.634 233.948 374.875 232.738C375.116 231.528 375.71 230.416 376.582 229.543C377.455 228.671 378.567 228.077 379.777 227.836C380.987 227.595 382.242 227.719 383.382 228.191C384.522 228.663 385.496 229.463 386.182 230.489C386.867 231.515 387.233 232.721 387.233 233.955C387.233 235.61 386.576 237.197 385.406 238.367C384.236 239.537 382.649 240.194 380.994 240.194Z" fill="white"/>
</g>
<path d="M581 216C581 180.101 551.899 151 516 151C480.101 151 451 180.101 451 216C451 251.899 480.101 281 516 281C551.899 281 581 251.899 581 216Z" fill="url(#paint17_linear_58_2)"/>
<path d="M520.917 210.293C520.817 210.293 520.717 210.293 520.617 210.301C519.897 209.01 518.849 207.932 517.578 207.177C516.308 206.421 514.86 206.015 513.382 206C511.067 206.069 508.875 207.054 507.285 208.738C505.696 210.422 504.84 212.667 504.905 214.982C504.84 217.297 505.696 219.542 507.285 221.226C508.875 222.91 511.067 223.895 513.382 223.964H520.917C522.678 223.912 524.347 223.162 525.557 221.881C526.767 220.599 527.418 218.89 527.369 217.128C527.418 215.366 526.767 213.657 525.557 212.375C524.347 211.094 522.678 210.344 520.917 210.292" fill="#75D5FF"/>
<path d="M515.999 242.531C530.765 242.531 542.736 230.56 542.736 215.794C542.736 201.027 530.765 189.057 515.999 189.057C501.232 189.057 489.262 201.027 489.262 215.794C489.262 230.56 501.232 242.531 515.999 242.531Z" stroke="#6BC7EF" stroke-width="4" stroke-linecap="round" stroke-linejoin="round"/>
<path d="M530.249 230.747C526.499 234.31 521.547 236.334 516.375 236.417C511.203 236.501 506.188 234.638 502.325 231.198C498.462 227.758 496.033 222.992 495.518 217.845C495.004 212.698 496.442 207.545 499.548 203.409C502.655 199.272 507.201 196.454 512.288 195.513C517.374 194.571 522.629 195.575 527.009 198.326C531.39 201.076 534.578 205.372 535.94 210.362C537.302 215.352 536.74 220.672 534.364 225.267" stroke="#E8FFF1" stroke-width="4" stroke-linecap="round" stroke-linejoin="round"/>
<path d="M502.527 192.667L498.652 185.955" stroke="#6BC7EF" stroke-width="4" stroke-linecap="round" stroke-linejoin="round"/>
<path d="M529.471 239.334L533.346 246.046" stroke="#6BC7EF" stroke-width="4" stroke-linecap="round" stroke-linejoin="round"/>
<path d="M489.055 216H481.305" stroke="#6BC7EF" stroke-width="4" stroke-linecap="round" stroke-linejoin="round"/>
<path d="M542.943 216H550.693" stroke="#6BC7EF" stroke-width="4" stroke-linecap="round" stroke-linejoin="round"/>
<path d="M502.527 239.334L498.652 246.046" stroke="#6BC7EF" stroke-width="4" stroke-linecap="round" stroke-linejoin="round"/>
<path d="M529.471 192.667L533.346 185.955" stroke="#6BC7EF" stroke-width="4" stroke-linecap="round" stroke-linejoin="round"/>
<path d="M561.5 223C565.09 223 568 220.09 568 216.5C568 212.91 565.09 210 561.5 210C557.91 210 555 212.91 555 216.5C555 220.09 557.91 223 561.5 223Z" fill="#024AC6"/>
<path d="M492.5 264C496.09 264 499 261.09 499 257.5C499 253.91 496.09 251 492.5 251C488.91 251 486 253.91 486 257.5C486 261.09 488.91 264 492.5 264Z" fill="#024AC6"/>
<path d="M472 224C476.971 224 481 219.971 481 215C481 210.029 476.971 206 472 206C467.029 206 463 210.029 463 215C463 219.971 467.029 224 472 224Z" fill="url(#paint18_linear_58_2)"/>
<path d="M495 187C498.314 187 501 184.314 501 181C501 177.686 498.314 175 495 175C491.686 175 489 177.686 489 181C489 184.314 491.686 187 495 187Z" fill="#024AC6"/>
<path d="M537 261C540.314 261 543 258.314 543 255C543 251.686 540.314 249 537 249C533.686 249 531 251.686 531 255C531 258.314 533.686 261 537 261Z" fill="url(#paint19_linear_58_2)"/>
<path d="M537 187C541.971 187 546 182.971 546 178C546 173.029 541.971 169 537 169C532.029 169 528 173.029 528 178C528 182.971 532.029 187 537 187Z" fill="url(#paint20_linear_58_2)"/>
<g filter="url(#filter14_d_58_2)">
<path d="M494.998 347.5C494.998 319.61 472.388 297 444.498 297C416.608 297 393.998 319.61 393.998 347.5C393.998 375.39 416.608 398 444.498 398C472.388 398 494.998 375.39 494.998 347.5Z" fill="white"/>
</g>
<path d="M448.27 350.068H442.047V377.543H448.27V350.068Z" fill="url(#paint21_linear_58_2)"/>
<path d="M445.16 352.661C443.417 352.662 441.712 352.145 440.263 351.177C438.813 350.209 437.683 348.832 437.016 347.222C436.349 345.612 436.174 343.84 436.514 342.13C436.854 340.42 437.693 338.85 438.925 337.617C440.158 336.384 441.728 335.545 443.438 335.205C445.147 334.864 446.919 335.039 448.53 335.706C450.14 336.373 451.517 337.502 452.485 338.952C453.454 340.401 453.971 342.105 453.971 343.848C453.968 346.185 453.039 348.425 451.387 350.077C449.734 351.729 447.494 352.659 445.158 352.661M445.158 341.261C444.645 341.261 444.144 341.413 443.719 341.698C443.293 341.983 442.961 342.388 442.765 342.861C442.569 343.335 442.518 343.856 442.618 344.358C442.718 344.861 442.965 345.322 443.327 345.685C443.689 346.047 444.151 346.294 444.654 346.393C445.156 346.493 445.677 346.442 446.15 346.246C446.624 346.05 447.028 345.718 447.313 345.292C447.598 344.865 447.75 344.365 447.75 343.852C447.75 343.165 447.478 342.505 446.992 342.018C446.506 341.531 445.847 341.257 445.16 341.256" fill="url(#paint22_linear_58_2)"/>
<path d="M459.721 358.412L455.321 354.012C456.656 352.677 457.715 351.092 458.438 349.348C459.16 347.604 459.532 345.735 459.532 343.847C459.532 341.959 459.16 340.089 458.438 338.345C457.715 336.601 456.656 335.016 455.321 333.681L459.721 329.281C461.634 331.194 463.152 333.464 464.187 335.963C465.223 338.462 465.755 341.141 465.755 343.846C465.755 346.551 465.223 349.229 464.187 351.728C463.152 354.227 461.634 356.498 459.721 358.41" fill="url(#paint23_linear_58_2)"/>
<path d="M430.595 358.412C426.738 354.546 424.572 349.308 424.572 343.848C424.572 338.387 426.738 333.149 430.595 329.283L434.995 333.683C432.303 336.381 430.791 340.037 430.791 343.849C430.791 347.66 432.303 351.316 434.995 354.014L430.595 358.412Z" fill="url(#paint24_linear_58_2)"/>
<path d="M468.402 367.088L464.002 362.688C468.992 357.686 471.794 350.91 471.794 343.845C471.794 336.78 468.992 330.003 464.002 325.002L468.402 320.602C474.556 326.77 478.013 335.129 478.013 343.843C478.013 352.557 474.556 360.915 468.402 367.084" fill="url(#paint25_linear_58_2)"/>
<path d="M421.917 367.087C418.865 364.036 416.444 360.412 414.792 356.425C413.14 352.437 412.289 348.163 412.289 343.847C412.289 339.53 413.139 335.256 414.791 331.268C416.443 327.281 418.864 323.657 421.916 320.605L426.316 325.005C423.842 327.48 421.879 330.418 420.54 333.651C419.201 336.884 418.511 340.349 418.511 343.848C418.511 347.348 419.201 350.813 420.54 354.046C421.879 357.279 423.842 360.217 426.316 362.691L421.917 367.087Z" fill="url(#paint26_linear_58_2)"/>
<path d="M1414 238C1414 210.386 1391.61 188 1364 188C1336.39 188 1314 210.386 1314 238C1314 265.614 1336.39 288 1364 288C1391.61 288 1414 265.614 1414 238Z" fill="url(#paint27_linear_58_2)"/>
<path d="M1391.75 237.001C1391.75 231.577 1390.16 226.272 1387.18 221.742C1384.2 217.212 1379.95 213.654 1374.97 211.51C1369.99 209.365 1364.49 208.727 1359.15 209.675C1353.81 210.623 1348.86 213.115 1344.92 216.842C1340.99 220.57 1338.22 225.371 1336.98 230.651C1335.74 235.93 1336.08 241.458 1337.94 246.55C1339.81 251.643 1343.13 256.076 1347.49 259.303C1351.85 262.53 1357.06 264.409 1362.47 264.708V264.75H1391.75V260.574H1378.62C1382.63 258.086 1385.95 254.615 1388.24 250.49C1390.54 246.365 1391.75 241.722 1391.75 237.001ZM1368.21 221.868C1369.48 220.605 1371.14 219.819 1372.92 219.644C1374.69 219.469 1376.48 219.916 1377.96 220.909C1379.45 221.901 1380.54 223.378 1381.06 225.087C1381.58 226.797 1381.49 228.633 1380.81 230.283C1380.12 231.933 1378.89 233.296 1377.31 234.138C1375.74 234.98 1373.92 235.249 1372.17 234.901C1370.41 234.552 1368.84 233.607 1367.7 232.226C1366.57 230.845 1365.95 229.114 1365.95 227.328C1365.95 226.313 1366.15 225.308 1366.54 224.371C1366.92 223.434 1367.49 222.583 1368.21 221.868ZM1348.87 221.868C1350.13 220.604 1351.79 219.817 1353.57 219.642C1355.35 219.466 1357.14 219.913 1358.62 220.905C1360.11 221.898 1361.2 223.375 1361.72 225.085C1362.24 226.795 1362.15 228.632 1361.47 230.284C1360.78 231.935 1359.55 233.298 1357.97 234.14C1356.4 234.983 1354.58 235.253 1352.82 234.904C1351.07 234.555 1349.49 233.61 1348.36 232.228C1347.23 230.847 1346.61 229.115 1346.61 227.328C1346.6 226.314 1346.8 225.309 1347.19 224.371C1347.58 223.434 1348.15 222.583 1348.87 221.868ZM1359.79 252.135C1358.71 253.215 1357.33 253.95 1355.84 254.248C1354.34 254.546 1352.78 254.393 1351.37 253.809C1349.96 253.224 1348.76 252.234 1347.91 250.965C1347.06 249.695 1346.61 248.202 1346.61 246.674C1346.61 245.147 1347.06 243.654 1347.91 242.384C1348.76 241.115 1349.96 240.125 1351.37 239.54C1352.78 238.956 1354.34 238.803 1355.84 239.101C1357.33 239.399 1358.71 240.134 1359.79 241.214C1360.51 241.927 1361.09 242.778 1361.48 243.715C1361.87 244.652 1362.07 245.658 1362.07 246.674C1362.07 247.691 1361.87 248.697 1361.48 249.634C1361.09 250.571 1360.51 251.421 1359.79 252.135ZM1364 239.483C1363.51 239.483 1363.03 239.337 1362.62 239.064C1362.21 238.791 1361.9 238.404 1361.71 237.95C1361.52 237.497 1361.47 236.998 1361.57 236.516C1361.66 236.035 1361.9 235.593 1362.25 235.246C1362.59 234.899 1363.04 234.662 1363.52 234.567C1364 234.471 1364.5 234.52 1364.95 234.708C1365.41 234.896 1365.79 235.214 1366.07 235.622C1366.34 236.03 1366.48 236.51 1366.48 237.001C1366.48 237.659 1366.22 238.291 1365.76 238.756C1365.29 239.222 1364.66 239.483 1364 239.483ZM1368.21 252.135C1366.95 250.872 1366.16 249.209 1365.99 247.431C1365.81 245.653 1366.26 243.87 1367.25 242.384C1368.25 240.899 1369.72 239.804 1371.43 239.285C1373.14 238.767 1374.98 238.857 1376.63 239.541C1378.28 240.225 1379.64 241.46 1380.49 243.035C1381.33 244.611 1381.6 246.43 1381.25 248.182C1380.9 249.934 1379.95 251.511 1378.57 252.644C1377.19 253.778 1375.46 254.397 1373.67 254.397C1371.63 254.396 1369.66 253.582 1368.21 252.135Z" fill="white"/>
<path d="M1518 167C1518 144.909 1500.09 127 1478 127C1455.91 127 1438 144.909 1438 167C1438 189.091 1455.91 207 1478 207C1500.09 207 1518 189.091 1518 167Z" fill="url(#paint28_linear_58_2)"/>
<path d="M1480.14 148.471C1484.32 148.951 1488.22 150.832 1491.19 153.808C1494.17 156.784 1496.05 160.68 1496.53 164.861H1504C1503.5 158.701 1500.82 152.921 1496.45 148.551C1492.08 144.181 1486.3 141.505 1480.14 141V148.471Z" fill="#78F8E6"/>
<path d="M1463.5 178.537C1461.43 175.94 1460.09 172.835 1459.62 169.544C1459.16 166.254 1459.58 162.899 1460.85 159.828C1462.12 156.758 1464.2 154.085 1466.85 152.087C1469.51 150.089 1472.65 148.84 1475.95 148.47V141C1471.17 141.381 1466.59 143.075 1462.71 145.895C1458.84 148.715 1455.81 152.552 1453.98 156.981C1452.15 161.411 1451.57 166.262 1452.32 170.998C1453.07 175.734 1455.11 180.171 1458.22 183.819L1463.5 178.537Z" fill="#A5FCDB"/>
<path d="M1496.53 169.047C1496.16 172.349 1494.91 175.491 1492.91 178.146C1490.91 180.801 1488.24 182.872 1485.17 184.143C1482.1 185.415 1478.75 185.839 1475.46 185.374C1472.17 184.908 1469.06 183.569 1466.46 181.496L1461.18 186.779C1464.83 189.89 1469.27 191.932 1474 192.681C1478.74 193.429 1483.59 192.854 1488.02 191.02C1492.45 189.185 1496.29 186.162 1499.11 182.285C1501.93 178.408 1503.62 173.826 1504 169.047H1496.53Z" fill="white"/>
<path d="M1486.14 158.861C1486.31 159.023 1486.43 159.215 1486.52 159.426C1486.61 159.638 1486.65 159.865 1486.65 160.094C1486.65 160.323 1486.61 160.55 1486.52 160.761C1486.43 160.973 1486.31 161.165 1486.14 161.327L1472.33 175.143C1472 175.47 1471.56 175.653 1471.09 175.653C1470.63 175.653 1470.19 175.469 1469.86 175.142C1469.53 174.815 1469.35 174.371 1469.35 173.909C1469.35 173.446 1469.53 173.003 1469.86 172.676L1483.67 158.861C1483.84 158.699 1484.03 158.57 1484.24 158.482C1484.45 158.395 1484.68 158.35 1484.91 158.35C1485.14 158.35 1485.36 158.395 1485.57 158.482C1485.79 158.57 1485.98 158.699 1486.14 158.861" fill="white"/>
<path d="M1474.55 159.271C1474.12 158.848 1473.58 158.56 1473 158.443C1472.41 158.326 1471.8 158.386 1471.25 158.615C1470.7 158.844 1470.23 159.231 1469.89 159.729C1469.56 160.226 1469.38 160.811 1469.38 161.409C1469.38 162.007 1469.56 162.592 1469.89 163.089C1470.23 163.586 1470.7 163.974 1471.25 164.203C1471.8 164.432 1472.41 164.491 1473 164.375C1473.58 164.258 1474.12 163.97 1474.55 163.547C1475.11 162.98 1475.43 162.211 1475.43 161.409C1475.43 160.607 1475.11 159.838 1474.55 159.271Z" fill="white"/>
<path d="M1485.73 170.453C1485.31 170.031 1484.77 169.743 1484.18 169.626C1483.6 169.51 1482.99 169.57 1482.44 169.799C1481.88 170.027 1481.41 170.415 1481.08 170.912C1480.75 171.409 1480.57 171.994 1480.57 172.591C1480.57 173.189 1480.75 173.774 1481.08 174.271C1481.41 174.768 1481.88 175.155 1482.44 175.384C1482.99 175.613 1483.6 175.673 1484.18 175.556C1484.77 175.44 1485.31 175.152 1485.73 174.729C1486.3 174.162 1486.61 173.393 1486.61 172.591C1486.61 171.789 1486.3 171.02 1485.73 170.453Z" fill="white"/>
<g filter="url(#filter15_d_58_2)">
<path d="M1567 302.5C1567 266.878 1538.12 238 1502.5 238C1466.87 238 1438 266.878 1438 302.5C1438 338.122 1466.87 367 1502.5 367C1538.12 367 1567 338.122 1567 302.5Z" fill="white"/>
</g>
<path d="M1523.39 284.078C1523 284.078 1522.62 284.091 1522.24 284.109C1516.56 274.263 1506.31 267.691 1494.62 267.691C1476.75 267.691 1462.26 283.045 1462.26 301.982C1462.26 320.919 1476.75 336.273 1494.62 336.273H1523.39C1536.99 336.273 1548.02 324.589 1548.02 310.173C1548.02 295.757 1536.99 284.073 1523.39 284.073" fill="#00F7C0"/>
<path d="M1492.2 302.31C1505.15 302.31 1515.65 291.812 1515.65 278.861C1515.65 265.911 1505.15 255.412 1492.2 255.412C1479.25 255.412 1468.75 265.911 1468.75 278.861C1468.75 291.812 1479.25 302.31 1492.2 302.31Z" fill="url(#paint29_linear_58_2)"/>
<path d="M1482.34 277.555L1492.2 267.691" stroke="white" stroke-width="4" stroke-linecap="round"/>
<path d="M1502.07 277.555L1492.2 267.691" stroke="white" stroke-width="4" stroke-linecap="round"/>
<path d="M1492.2 290.021V270.58" stroke="white" stroke-width="4" stroke-linecap="round"/>
<defs>
<filter id="filter0_d_58_2" x="175.5" y="98.5" width="14" height="222" filterUnits="userSpaceOnUse" color-interpolation-filters="sRGB">
<feFlood flood-opacity="0" result="BackgroundImageFix"/>
<feColorMatrix in="SourceAlpha" type="matrix" values="0 0 0 0 0 0 0 0 0 0 0 0 0 0 0 0 0 0 127 0" result="hardAlpha"/>
<feOffset/>
<feGaussianBlur stdDeviation="3"/>
<feColorMatrix type="matrix" values="0 0 0 0 1 0 0 0 0 1 0 0 0 0 1 0 0 0 1 0"/>
<feBlend mode="normal" in2="BackgroundImageFix" result="effect1_dropShadow_58_2"/>
<feBlend mode="normal" in="SourceGraphic" in2="effect1_dropShadow_58_2" result="shape"/>
</filter>
<filter id="filter1_d_58_2" x="160.5" y="75.5" width="43" height="43" filterUnits="userSpaceOnUse" color-interpolation-filters="sRGB">
<feFlood flood-opacity="0" result="BackgroundImageFix"/>
<feColorMatrix in="SourceAlpha" type="matrix" values="0 0 0 0 0 0 0 0 0 0 0 0 0 0 0 0 0 0 127 0" result="hardAlpha"/>
<feOffset/>
<feGaussianBlur stdDeviation="10"/>
<feColorMatrix type="matrix" values="0 0 0 0 1 0 0 0 0 1 0 0 0 0 1 0 0 0 1 0"/>
<feBlend mode="normal" in2="BackgroundImageFix" result="effect1_dropShadow_58_2"/>
<feBlend mode="normal" in="SourceGraphic" in2="effect1_dropShadow_58_2" result="shape"/>
</filter>
<filter id="filter2_d_58_2" x="1777.5" y="100.717" width="14" height="222" filterUnits="userSpaceOnUse" color-interpolation-filters="sRGB">
<feFlood flood-opacity="0" result="BackgroundImageFix"/>
<feColorMatrix in="SourceAlpha" type="matrix" values="0 0 0 0 0 0 0 0 0 0 0 0 0 0 0 0 0 0 127 0" result="hardAlpha"/>
<feOffset/>
<feGaussianBlur stdDeviation="3"/>
<feColorMatrix type="matrix" values="0 0 0 0 1 0 0 0 0 1 0 0 0 0 1 0 0 0 1 0"/>
<feBlend mode="normal" in2="BackgroundImageFix" result="effect1_dropShadow_58_2"/>
<feBlend mode="normal" in="SourceGraphic" in2="effect1_dropShadow_58_2" result="shape"/>
</filter>
<filter id="filter3_d_58_2" x="1762.5" y="77.7168" width="43" height="43" filterUnits="userSpaceOnUse" color-interpolation-filters="sRGB">
<feFlood flood-opacity="0" result="BackgroundImageFix"/>
<feColorMatrix in="SourceAlpha" type="matrix" values="0 0 0 0 0 0 0 0 0 0 0 0 0 0 0 0 0 0 127 0" result="hardAlpha"/>
<feOffset/>
<feGaussianBlur stdDeviation="10"/>
<feColorMatrix type="matrix" values="0 0 0 0 1 0 0 0 0 1 0 0 0 0 1 0 0 0 1 0"/>
<feBlend mode="normal" in2="BackgroundImageFix" result="effect1_dropShadow_58_2"/>
<feBlend mode="normal" in="SourceGraphic" in2="effect1_dropShadow_58_2" result="shape"/>
</filter>
<filter id="filter4_d_58_2" x="1594.5" y="0" width="14" height="222" filterUnits="userSpaceOnUse" color-interpolation-filters="sRGB">
<feFlood flood-opacity="0" result="BackgroundImageFix"/>
<feColorMatrix in="SourceAlpha" type="matrix" values="0 0 0 0 0 0 0 0 0 0 0 0 0 0 0 0 0 0 127 0" result="hardAlpha"/>
<feOffset/>
<feGaussianBlur stdDeviation="3"/>
<feColorMatrix type="matrix" values="0 0 0 0 1 0 0 0 0 1 0 0 0 0 1 0 0 0 1 0"/>
<feBlend mode="normal" in2="BackgroundImageFix" result="effect1_dropShadow_58_2"/>
<feBlend mode="normal" in="SourceGraphic" in2="effect1_dropShadow_58_2" result="shape"/>
</filter>
<filter id="filter5_d_58_2" x="1580.5" y="202" width="43" height="43" filterUnits="userSpaceOnUse" color-interpolation-filters="sRGB">
<feFlood flood-opacity="0" result="BackgroundImageFix"/>
<feColorMatrix in="SourceAlpha" type="matrix" values="0 0 0 0 0 0 0 0 0 0 0 0 0 0 0 0 0 0 127 0" result="hardAlpha"/>
<feOffset/>
<feGaussianBlur stdDeviation="10"/>
<feColorMatrix type="matrix" values="0 0 0 0 1 0 0 0 0 1 0 0 0 0 1 0 0 0 1 0"/>
<feBlend mode="normal" in2="BackgroundImageFix" result="effect1_dropShadow_58_2"/>
<feBlend mode="normal" in="SourceGraphic" in2="effect1_dropShadow_58_2" result="shape"/>
</filter>
<filter id="filter6_d_58_2" x="118.5" y="40.5039" width="14" height="138.717" filterUnits="userSpaceOnUse" color-interpolation-filters="sRGB">
<feFlood flood-opacity="0" result="BackgroundImageFix"/>
<feColorMatrix in="SourceAlpha" type="matrix" values="0 0 0 0 0 0 0 0 0 0 0 0 0 0 0 0 0 0 127 0" result="hardAlpha"/>
<feOffset/>
<feGaussianBlur stdDeviation="3"/>
<feColorMatrix type="matrix" values="0 0 0 0 1 0 0 0 0 1 0 0 0 0 1 0 0 0 1 0"/>
<feBlend mode="normal" in2="BackgroundImageFix" result="effect1_dropShadow_58_2"/>
<feBlend mode="normal" in="SourceGraphic" in2="effect1_dropShadow_58_2" result="shape"/>
</filter>
<filter id="filter7_d_58_2" x="103.5" y="17.5" width="43" height="43" filterUnits="userSpaceOnUse" color-interpolation-filters="sRGB">
<feFlood flood-opacity="0" result="BackgroundImageFix"/>
<feColorMatrix in="SourceAlpha" type="matrix" values="0 0 0 0 0 0 0 0 0 0 0 0 0 0 0 0 0 0 127 0" result="hardAlpha"/>
<feOffset/>
<feGaussianBlur stdDeviation="10"/>
<feColorMatrix type="matrix" values="0 0 0 0 1 0 0 0 0 1 0 0 0 0 1 0 0 0 1 0"/>
<feBlend mode="normal" in2="BackgroundImageFix" result="effect1_dropShadow_58_2"/>
<feBlend mode="normal" in="SourceGraphic" in2="effect1_dropShadow_58_2" result="shape"/>
</filter>
<filter id="filter8_d_58_2" x="1740.5" y="453.504" width="14" height="138.717" filterUnits="userSpaceOnUse" color-interpolation-filters="sRGB">
<feFlood flood-opacity="0" result="BackgroundImageFix"/>
<feColorMatrix in="SourceAlpha" type="matrix" values="0 0 0 0 0 0 0 0 0 0 0 0 0 0 0 0 0 0 127 0" result="hardAlpha"/>
<feOffset/>
<feGaussianBlur stdDeviation="3"/>
<feColorMatrix type="matrix" values="0 0 0 0 1 0 0 0 0 1 0 0 0 0 1 0 0 0 1 0"/>
<feBlend mode="normal" in2="BackgroundImageFix" result="effect1_dropShadow_58_2"/>
<feBlend mode="normal" in="SourceGraphic" in2="effect1_dropShadow_58_2" result="shape"/>
</filter>
<filter id="filter9_d_58_2" x="1725.5" y="430.5" width="43" height="43" filterUnits="userSpaceOnUse" color-interpolation-filters="sRGB">
<feFlood flood-opacity="0" result="BackgroundImageFix"/>
<feColorMatrix in="SourceAlpha" type="matrix" values="0 0 0 0 0 0 0 0 0 0 0 0 0 0 0 0 0 0 127 0" result="hardAlpha"/>
<feOffset/>
<feGaussianBlur stdDeviation="10"/>
<feColorMatrix type="matrix" values="0 0 0 0 1 0 0 0 0 1 0 0 0 0 1 0 0 0 1 0"/>
<feBlend mode="normal" in2="BackgroundImageFix" result="effect1_dropShadow_58_2"/>
<feBlend mode="normal" in="SourceGraphic" in2="effect1_dropShadow_58_2" result="shape"/>
</filter>
<filter id="filter10_d_58_2" x="138.5" y="473.287" width="14" height="138.717" filterUnits="userSpaceOnUse" color-interpolation-filters="sRGB">
<feFlood flood-opacity="0" result="BackgroundImageFix"/>
<feColorMatrix in="SourceAlpha" type="matrix" values="0 0 0 0 0 0 0 0 0 0 0 0 0 0 0 0 0 0 127 0" result="hardAlpha"/>
<feOffset/>
<feGaussianBlur stdDeviation="3"/>
<feColorMatrix type="matrix" values="0 0 0 0 1 0 0 0 0 1 0 0 0 0 1 0 0 0 1 0"/>
<feBlend mode="normal" in2="BackgroundImageFix" result="effect1_dropShadow_58_2"/>
<feBlend mode="normal" in="SourceGraphic" in2="effect1_dropShadow_58_2" result="shape"/>
</filter>
<filter id="filter11_d_58_2" x="123.5" y="450.283" width="43" height="43" filterUnits="userSpaceOnUse" color-interpolation-filters="sRGB">
<feFlood flood-opacity="0" result="BackgroundImageFix"/>
<feColorMatrix in="SourceAlpha" type="matrix" values="0 0 0 0 0 0 0 0 0 0 0 0 0 0 0 0 0 0 127 0" result="hardAlpha"/>
<feOffset/>
<feGaussianBlur stdDeviation="10"/>
<feColorMatrix type="matrix" values="0 0 0 0 1 0 0 0 0 1 0 0 0 0 1 0 0 0 1 0"/>
<feBlend mode="normal" in2="BackgroundImageFix" result="effect1_dropShadow_58_2"/>
<feBlend mode="normal" in="SourceGraphic" in2="effect1_dropShadow_58_2" result="shape"/>
</filter>
<filter id="filter12_d_58_2" x="1838.5" y="27.0039" width="14" height="138.717" filterUnits="userSpaceOnUse" color-interpolation-filters="sRGB">
<feFlood flood-opacity="0" result="BackgroundImageFix"/>
<feColorMatrix in="SourceAlpha" type="matrix" values="0 0 0 0 0 0 0 0 0 0 0 0 0 0 0 0 0 0 127 0" result="hardAlpha"/>
<feOffset/>
<feGaussianBlur stdDeviation="3"/>
<feColorMatrix type="matrix" values="0 0 0 0 1 0 0 0 0 1 0 0 0 0 1 0 0 0 1 0"/>
<feBlend mode="normal" in2="BackgroundImageFix" result="effect1_dropShadow_58_2"/>
<feBlend mode="normal" in="SourceGraphic" in2="effect1_dropShadow_58_2" result="shape"/>
</filter>
<filter id="filter13_d_58_2" x="1823.5" y="4" width="43" height="43" filterUnits="userSpaceOnUse" color-interpolation-filters="sRGB">
<feFlood flood-opacity="0" result="BackgroundImageFix"/>
<feColorMatrix in="SourceAlpha" type="matrix" values="0 0 0 0 0 0 0 0 0 0 0 0 0 0 0 0 0 0 127 0" result="hardAlpha"/>
<feOffset/>
<feGaussianBlur stdDeviation="10"/>
<feColorMatrix type="matrix" values="0 0 0 0 1 0 0 0 0 1 0 0 0 0 1 0 0 0 1 0"/>
<feBlend mode="normal" in2="BackgroundImageFix" result="effect1_dropShadow_58_2"/>
<feBlend mode="normal" in="SourceGraphic" in2="effect1_dropShadow_58_2" result="shape"/>
</filter>
<filter id="filter14_d_58_2" x="373.998" y="277" width="141" height="141" filterUnits="userSpaceOnUse" color-interpolation-filters="sRGB">
<feFlood flood-opacity="0" result="BackgroundImageFix"/>
<feColorMatrix in="SourceAlpha" type="matrix" values="0 0 0 0 0 0 0 0 0 0 0 0 0 0 0 0 0 0 127 0" result="hardAlpha"/>
<feOffset/>
<feGaussianBlur stdDeviation="10"/>
<feColorMatrix type="matrix" values="0 0 0 0 0.8 0 0 0 0 0.894118 0 0 0 0 0.972549 0 0 0 0.702 0"/>
<feBlend mode="normal" in2="BackgroundImageFix" result="effect1_dropShadow_58_2"/>
<feBlend mode="normal" in="SourceGraphic" in2="effect1_dropShadow_58_2" result="shape"/>
</filter>
<filter id="filter15_d_58_2" x="1418" y="218" width="169" height="169" filterUnits="userSpaceOnUse" color-interpolation-filters="sRGB">
<feFlood flood-opacity="0" result="BackgroundImageFix"/>
<feColorMatrix in="SourceAlpha" type="matrix" values="0 0 0 0 0 0 0 0 0 0 0 0 0 0 0 0 0 0 127 0" result="hardAlpha"/>
<feOffset/>
<feGaussianBlur stdDeviation="10"/>
<feColorMatrix type="matrix" values="0 0 0 0 0.603922 0 0 0 0 0.737255 0 0 0 0 0.85098 0 0 0 0.702 0"/>
<feBlend mode="normal" in2="BackgroundImageFix" result="effect1_dropShadow_58_2"/>
<feBlend mode="normal" in="SourceGraphic" in2="effect1_dropShadow_58_2" result="shape"/>
</filter>
<linearGradient id="paint0_linear_58_2" x1="840.96" y1="144.6" x2="840.585" y2="636.603" gradientUnits="userSpaceOnUse">
<stop stop-color="#E7F0FB"/>
<stop offset="0.674" stop-color="white"/>
<stop offset="1" stop-color="#E9F2FC"/>
</linearGradient>
<linearGradient id="paint1_linear_58_2" x1="837.12" y1="6" x2="837.12" y2="636.6" gradientUnits="userSpaceOnUse">
<stop stop-color="#D4E6FC"/>
<stop offset="0.553" stop-color="white"/>
<stop offset="1" stop-color="#E9F2FC"/>
</linearGradient>
<linearGradient id="paint2_linear_58_2" x1="183.5" y1="105.55" x2="183.5" y2="312.61" gradientUnits="userSpaceOnUse">
<stop stop-color="white" stop-opacity="0"/>
<stop offset="1" stop-color="white"/>
</linearGradient>
<linearGradient id="paint3_linear_58_2" x1="183.5" y1="95.515" x2="183.5" y2="98.473" gradientUnits="userSpaceOnUse">
<stop stop-color="white" stop-opacity="0"/>
<stop offset="1" stop-color="white"/>
</linearGradient>
<linearGradient id="paint4_linear_58_2" x1="1785.5" y1="107.767" x2="1785.5" y2="314.827" gradientUnits="userSpaceOnUse">
<stop stop-color="white" stop-opacity="0"/>
<stop offset="1" stop-color="white"/>
</linearGradient>
<linearGradient id="paint5_linear_58_2" x1="1785.5" y1="97.7318" x2="1785.5" y2="100.69" gradientUnits="userSpaceOnUse">
<stop stop-color="white" stop-opacity="0"/>
<stop offset="1" stop-color="white"/>
</linearGradient>
<linearGradient id="paint6_linear_58_2" x1="1600.5" y1="214.95" x2="1600.5" y2="7.88999" gradientUnits="userSpaceOnUse">
<stop stop-color="white" stop-opacity="0"/>
<stop offset="1" stop-color="white"/>
</linearGradient>
<linearGradient id="paint7_linear_58_2" x1="1600.5" y1="224.985" x2="1600.5" y2="222.027" gradientUnits="userSpaceOnUse">
<stop stop-color="white" stop-opacity="0"/>
<stop offset="1" stop-color="white"/>
</linearGradient>
<linearGradient id="paint8_linear_58_2" x1="126.5" y1="47.1373" x2="126.5" y2="172.08" gradientUnits="userSpaceOnUse">
<stop stop-color="white" stop-opacity="0"/>
<stop offset="1" stop-color="white"/>
</linearGradient>
<linearGradient id="paint9_linear_58_2" x1="126.5" y1="37.515" x2="126.5" y2="40.473" gradientUnits="userSpaceOnUse">
<stop stop-color="white" stop-opacity="0"/>
<stop offset="1" stop-color="white"/>
</linearGradient>
<linearGradient id="paint10_linear_58_2" x1="1748.5" y1="460.137" x2="1748.5" y2="585.08" gradientUnits="userSpaceOnUse">
<stop stop-color="white" stop-opacity="0"/>
<stop offset="1" stop-color="white"/>
</linearGradient>
<linearGradient id="paint11_linear_58_2" x1="1748.5" y1="450.515" x2="1748.5" y2="453.473" gradientUnits="userSpaceOnUse">
<stop stop-color="white" stop-opacity="0"/>
<stop offset="1" stop-color="white"/>
</linearGradient>
<linearGradient id="paint12_linear_58_2" x1="146.5" y1="479.92" x2="146.5" y2="604.863" gradientUnits="userSpaceOnUse">
<stop stop-color="white" stop-opacity="0"/>
<stop offset="1" stop-color="white"/>
</linearGradient>
<linearGradient id="paint13_linear_58_2" x1="146.5" y1="470.298" x2="146.5" y2="473.256" gradientUnits="userSpaceOnUse">
<stop stop-color="white" stop-opacity="0"/>
<stop offset="1" stop-color="white"/>
</linearGradient>
<linearGradient id="paint14_linear_58_2" x1="1844.5" y1="33.0037" x2="1844.5" y2="158.58" gradientUnits="userSpaceOnUse">
<stop stop-color="white" stop-opacity="0"/>
<stop offset="1" stop-color="white"/>
</linearGradient>
<linearGradient id="paint15_linear_58_2" x1="1846.5" y1="24.015" x2="1846.5" y2="26.973" gradientUnits="userSpaceOnUse">
<stop stop-color="white" stop-opacity="0"/>
<stop offset="1" stop-color="white"/>
</linearGradient>
<linearGradient id="paint16_linear_58_2" x1="380.988" y1="243.33" x2="332.338" y2="280.15" gradientUnits="userSpaceOnUse">
<stop stop-color="#46D0FB"/>
<stop offset="1" stop-color="#99F65C"/>
</linearGradient>
<linearGradient id="paint17_linear_58_2" x1="467.9" y1="158.8" x2="561.37" y2="267.74" gradientUnits="userSpaceOnUse">
<stop stop-color="#2159F9"/>
<stop offset="1" stop-color="#0F0FFD" stop-opacity="0.459"/>
</linearGradient>
<linearGradient id="paint18_linear_58_2" x1="463" y1="215" x2="481" y2="224" gradientUnits="userSpaceOnUse">
<stop stop-color="#047AF1"/>
<stop offset="1" stop-color="#44B2FB"/>
</linearGradient>
<linearGradient id="paint19_linear_58_2" x1="531" y1="255" x2="543" y2="261" gradientUnits="userSpaceOnUse">
<stop stop-color="#047AF1"/>
<stop offset="1" stop-color="#44B2FB"/>
</linearGradient>
<linearGradient id="paint20_linear_58_2" x1="541.77" y1="178" x2="522.87" y2="182.284" gradientUnits="userSpaceOnUse">
<stop stop-color="#7FEA8E"/>
<stop offset="1" stop-color="#14DFFF"/>
</linearGradient>
<linearGradient id="paint21_linear_58_2" x1="445.158" y1="350.068" x2="445.158" y2="377.543" gradientUnits="userSpaceOnUse">
<stop stop-color="#45CCFF"/>
<stop offset="1" stop-color="#0066DE"/>
</linearGradient>
<linearGradient id="paint22_linear_58_2" x1="445.158" y1="335.035" x2="445.158" y2="352.661" gradientUnits="userSpaceOnUse">
<stop stop-color="#45CCFF"/>
<stop offset="1" stop-color="#0066DE"/>
</linearGradient>
<linearGradient id="paint23_linear_58_2" x1="460.538" y1="329.281" x2="460.538" y2="358.412" gradientUnits="userSpaceOnUse">
<stop stop-color="#58D7FF"/>
<stop offset="1" stop-color="#0469DE"/>
</linearGradient>
<linearGradient id="paint24_linear_58_2" x1="429.784" y1="329.283" x2="429.784" y2="358.412" gradientUnits="userSpaceOnUse">
<stop stop-color="#58D7FF"/>
<stop offset="1" stop-color="#0469DE"/>
</linearGradient>
<linearGradient id="paint25_linear_58_2" x1="471.007" y1="320.602" x2="471.007" y2="367.088" gradientUnits="userSpaceOnUse">
<stop stop-color="#45ECFF"/>
<stop offset="1" stop-color="#00BAFF"/>
</linearGradient>
<linearGradient id="paint26_linear_58_2" x1="419.303" y1="320.605" x2="419.303" y2="367.087" gradientUnits="userSpaceOnUse">
<stop stop-color="#45ECFF"/>
<stop offset="1" stop-color="#00BAFF"/>
</linearGradient>
<linearGradient id="paint27_linear_58_2" x1="1342" y1="192" x2="1414" y2="293" gradientUnits="userSpaceOnUse">
<stop stop-color="#46D0FB"/>
<stop offset="1" stop-color="#99F65C"/>
</linearGradient>
<linearGradient id="paint28_linear_58_2" x1="1444.16" y1="135.24" x2="1518" y2="202.04" gradientUnits="userSpaceOnUse">
<stop stop-color="#7FF9DC"/>
<stop offset="1" stop-color="#02ADD1"/>
</linearGradient>
<linearGradient id="paint29_linear_58_2" x1="1492.2" y1="255.412" x2="1492.2" y2="302.31" gradientUnits="userSpaceOnUse">
<stop stop-color="#0433F1"/>
<stop offset="1" stop-color="#188CF4"/>
</linearGradient>
</defs>
</svg>

