

<svg viewBox="0 0 1242 291" fill="none" xmlns="http://www.w3.org/2000/svg">
<path d="M70.4961 111.5C70.4961 92.17 54.8261 76.5 35.4961 76.5C16.1661 76.5 0.496094 92.17 0.496094 111.5C0.496094 130.83 16.1661 146.5 35.4961 146.5C54.8261 146.5 70.4961 130.83 70.4961 111.5Z" fill="url(#paint0_linear_2_54464)"/>
<mask id="mask0_2_54464" style="mask-type:luminance" maskUnits="userSpaceOnUse" x="0" y="75" width="71" height="71">
<path d="M70.5081 75.5H0.496094V145.512H70.5081V75.5Z" fill="white"/>
</mask>
<g mask="url(#mask0_2_54464)">
<path d="M35.5019 92.666C33.6254 92.6659 31.7673 93.0354 30.0336 93.7534C28.2999 94.4715 26.7246 95.524 25.3977 96.8509C24.0709 98.1778 23.0184 99.753 22.3003 101.487C21.5823 103.22 21.2128 105.079 21.2129 106.955C21.2129 114.847 35.5019 128.346 35.5019 128.346C35.5019 128.346 49.7909 114.846 49.7909 106.955C49.791 105.079 49.4215 103.22 48.7035 101.487C47.9854 99.753 46.9329 98.1778 45.606 96.8509C44.2792 95.524 42.7039 94.4715 40.9702 93.7534C39.2365 93.0354 37.3784 92.6659 35.5019 92.666ZM35.5019 113.194C34.2679 113.194 33.0617 112.828 32.0357 112.143C31.0097 111.457 30.21 110.483 29.7378 109.343C29.2656 108.203 29.142 106.948 29.3828 105.738C29.6235 104.528 30.2177 103.416 31.0903 102.543C31.9628 101.671 33.0745 101.077 34.2847 100.836C35.495 100.595 36.7494 100.719 37.8895 101.191C39.0295 101.663 40.0039 102.463 40.6894 103.489C41.375 104.515 41.7409 105.721 41.7409 106.955C41.7409 108.61 41.0836 110.197 39.9135 111.367C38.7435 112.537 37.1566 113.194 35.5019 113.194Z" fill="white"/>
</g>
<path d="M235.508 89C235.508 53.1015 206.406 24 170.508 24C134.609 24 105.508 53.1015 105.508 89C105.508 124.899 134.609 154 170.508 154C206.406 154 235.508 124.899 235.508 89Z" fill="url(#paint1_linear_2_54464)"/>
<path d="M175.425 83.293C175.325 83.293 175.225 83.293 175.125 83.301C174.405 82.0099 173.357 80.9321 172.086 80.1768C170.815 79.4215 169.368 79.0155 167.89 79C165.575 79.069 163.383 80.0536 161.793 81.7376C160.204 83.4216 159.348 85.6674 159.413 87.982C159.348 90.2966 160.204 92.5424 161.793 94.2264C163.383 95.9104 165.575 96.895 167.89 96.964H175.425C177.186 96.9117 178.855 96.1625 180.065 94.8808C181.275 93.5991 181.926 91.8897 181.877 90.128C181.926 88.3663 181.275 86.6569 180.065 85.3752C178.855 84.0935 177.186 83.3443 175.425 83.292" fill="#75D5FF"/>
<path d="M170.507 115.531C185.273 115.531 197.244 103.56 197.244 88.7936C197.244 74.0272 185.273 62.0566 170.507 62.0566C155.74 62.0566 143.77 74.0272 143.77 88.7936C143.77 103.56 155.74 115.531 170.507 115.531Z" stroke="#6BC7EF" stroke-width="4" stroke-linecap="round" stroke-linejoin="round"/>
<path d="M184.757 103.747C181.007 107.31 176.055 109.334 170.883 109.417C165.711 109.501 160.696 107.638 156.833 104.198C152.97 100.758 150.54 95.9919 150.026 90.8448C149.512 85.6976 150.95 80.5452 154.056 76.4088C157.162 72.2724 161.709 69.4541 166.796 68.5126C171.882 67.5711 177.136 68.575 181.517 71.3255C185.898 74.076 189.086 78.3721 190.448 83.3623C191.81 88.3524 191.248 93.6723 188.872 98.2672" stroke="#E8FFF1" stroke-width="4" stroke-linecap="round" stroke-linejoin="round"/>
<path d="M157.035 65.6671L153.16 58.9551" stroke="#6BC7EF" stroke-width="4" stroke-linecap="round" stroke-linejoin="round"/>
<path d="M183.979 112.334L187.854 119.046" stroke="#6BC7EF" stroke-width="4" stroke-linecap="round" stroke-linejoin="round"/>
<path d="M143.562 89H135.812" stroke="#6BC7EF" stroke-width="4" stroke-linecap="round" stroke-linejoin="round"/>
<path d="M197.451 89H205.201" stroke="#6BC7EF" stroke-width="4" stroke-linecap="round" stroke-linejoin="round"/>
<path d="M157.035 112.334L153.16 119.046" stroke="#6BC7EF" stroke-width="4" stroke-linecap="round" stroke-linejoin="round"/>
<path d="M183.979 65.6671L187.854 58.9551" stroke="#6BC7EF" stroke-width="4" stroke-linecap="round" stroke-linejoin="round"/>
<path d="M216.008 96C219.598 96 222.508 93.0899 222.508 89.5C222.508 85.9101 219.598 83 216.008 83C212.418 83 209.508 85.9101 209.508 89.5C209.508 93.0899 212.418 96 216.008 96Z" fill="#024AC6"/>
<path d="M147.008 137C150.598 137 153.508 134.09 153.508 130.5C153.508 126.91 150.598 124 147.008 124C143.418 124 140.508 126.91 140.508 130.5C140.508 134.09 143.418 137 147.008 137Z" fill="#024AC6"/>
<path d="M126.508 97C131.478 97 135.508 92.9706 135.508 88C135.508 83.0294 131.478 79 126.508 79C121.537 79 117.508 83.0294 117.508 88C117.508 92.9706 121.537 97 126.508 97Z" fill="url(#paint2_linear_2_54464)"/>
<path d="M149.508 60C152.822 60 155.508 57.3137 155.508 54C155.508 50.6863 152.822 48 149.508 48C146.194 48 143.508 50.6863 143.508 54C143.508 57.3137 146.194 60 149.508 60Z" fill="#024AC6"/>
<path d="M191.508 134C194.822 134 197.508 131.314 197.508 128C197.508 124.686 194.822 122 191.508 122C188.194 122 185.508 124.686 185.508 128C185.508 131.314 188.194 134 191.508 134Z" fill="url(#paint3_linear_2_54464)"/>
<path d="M191.508 60C196.478 60 200.508 55.9706 200.508 51C200.508 46.0294 196.478 42 191.508 42C186.537 42 182.508 46.0294 182.508 51C182.508 55.9706 186.537 60 191.508 60Z" fill="url(#paint4_linear_2_54464)"/>
<g filter="url(#filter0_d_2_54464)">
<path d="M149.506 220.5C149.506 192.61 126.896 170 99.0059 170C71.1155 170 48.5059 192.61 48.5059 220.5C48.5059 248.39 71.1155 271 99.0059 271C126.896 271 149.506 248.39 149.506 220.5Z" fill="white"/>
</g>
<path d="M102.778 223.068H96.5547V250.543H102.778V223.068Z" fill="url(#paint5_linear_2_54464)"/>
<path d="M99.6675 225.661C97.9244 225.662 96.2203 225.145 94.7708 224.177C93.3212 223.209 92.1913 221.832 91.524 220.222C90.8566 218.612 90.6818 216.84 91.0216 215.13C91.3615 213.42 92.2007 211.85 93.4331 210.617C94.6655 209.384 96.2359 208.545 97.9455 208.205C99.6551 207.864 101.427 208.039 103.038 208.706C104.648 209.373 106.025 210.502 106.993 211.952C107.962 213.401 108.479 215.105 108.479 216.848C108.476 219.185 107.547 221.425 105.894 223.077C104.242 224.729 102.002 225.659 99.6655 225.661M99.6655 214.261C99.1531 214.261 98.6523 214.413 98.2263 214.698C97.8004 214.983 97.4684 215.388 97.2725 215.861C97.0765 216.335 97.0254 216.856 97.1254 217.358C97.2255 217.861 97.4724 218.322 97.8348 218.685C98.1972 219.047 98.6589 219.294 99.1614 219.393C99.664 219.493 100.185 219.442 100.658 219.246C101.132 219.05 101.536 218.718 101.821 218.292C102.106 217.865 102.258 217.365 102.258 216.852C102.258 216.165 101.986 215.505 101.5 215.018C101.014 214.531 100.355 214.257 99.6675 214.256" fill="url(#paint6_linear_2_54464)"/>
<path d="M114.229 231.412L109.829 227.012C111.164 225.677 112.223 224.092 112.946 222.348C113.668 220.604 114.04 218.735 114.04 216.847C114.04 214.959 113.668 213.089 112.946 211.345C112.223 209.601 111.164 208.016 109.829 206.681L114.229 202.281C116.142 204.194 117.66 206.464 118.695 208.963C119.73 211.462 120.263 214.141 120.263 216.846C120.263 219.551 119.73 222.229 118.695 224.728C117.66 227.227 116.142 229.498 114.229 231.41" fill="url(#paint7_linear_2_54464)"/>
<path d="M85.1027 231.412C81.246 227.546 79.0801 222.308 79.0801 216.848C79.0801 211.387 81.246 206.149 85.1027 202.283L89.5027 206.683C86.8105 209.381 85.2985 213.037 85.2985 216.849C85.2985 220.66 86.8105 224.316 89.5027 227.014L85.1027 231.412Z" fill="url(#paint8_linear_2_54464)"/>
<path d="M122.91 240.088L118.51 235.688C123.5 230.686 126.302 223.91 126.302 216.845C126.302 209.78 123.5 203.003 118.51 198.002L122.91 193.602C129.064 199.77 132.521 208.129 132.521 216.843C132.521 225.557 129.064 233.915 122.91 240.084" fill="url(#paint9_linear_2_54464)"/>
<path d="M76.4252 240.087C73.3728 237.036 70.9514 233.412 69.2994 229.425C67.6473 225.437 66.797 221.163 66.7969 216.847C66.7968 212.53 67.647 208.256 69.2988 204.268C70.9507 200.281 73.3719 196.657 76.4242 193.605L80.8242 198.005C78.3497 200.48 76.3869 203.418 75.0477 206.651C73.7085 209.884 73.0192 213.349 73.0192 216.848C73.0192 220.348 73.7085 223.813 75.0477 227.046C76.3869 230.279 78.3497 233.217 80.8242 235.691L76.4252 240.087Z" fill="url(#paint10_linear_2_54464)"/>
<path d="M1068.51 111C1068.51 83.3858 1046.12 61 1018.51 61C990.894 61 968.508 83.3858 968.508 111C968.508 138.614 990.894 161 1018.51 161C1046.12 161 1068.51 138.614 1068.51 111Z" fill="url(#paint11_linear_2_54464)"/>
<path d="M1046.26 110.001C1046.26 104.577 1044.67 99.2725 1041.69 94.7421C1038.71 90.2117 1034.46 86.6543 1029.48 84.5097C1024.5 82.3651 1019 81.7273 1013.66 82.6751C1008.32 83.6228 1003.37 86.1146 999.433 89.8425C995.493 93.5704 992.732 98.3709 991.492 103.651C990.251 108.93 990.585 114.458 992.451 119.55C994.318 124.643 997.636 129.076 1002 132.303C1006.35 135.53 1011.56 137.409 1016.98 137.708V137.75H1046.26V133.574H1033.13C1037.14 131.086 1040.45 127.615 1042.75 123.49C1045.05 119.365 1046.26 114.722 1046.26 110.001ZM1022.72 94.868C1023.99 93.605 1025.65 92.8191 1027.42 92.6442C1029.2 92.4693 1030.99 92.9162 1032.47 93.9087C1033.96 94.9012 1035.05 96.378 1035.57 98.0874C1036.09 99.7967 1036 101.633 1035.31 103.283C1034.63 104.933 1033.4 106.296 1031.82 107.138C1030.24 107.98 1028.43 108.249 1026.67 107.901C1024.92 107.552 1023.35 106.607 1022.21 105.226C1021.08 103.845 1020.46 102.114 1020.46 100.328C1020.46 99.3135 1020.66 98.3085 1021.04 97.3712C1021.43 96.434 1022 95.5831 1022.72 94.868ZM1003.38 94.868C1004.64 93.604 1006.3 92.8172 1008.08 92.6417C1009.86 92.4662 1011.64 92.9128 1013.13 93.9054C1014.62 94.898 1015.71 96.3752 1016.23 98.0852C1016.75 99.7953 1016.66 101.632 1015.98 103.284C1015.29 104.935 1014.06 106.298 1012.48 107.14C1010.9 107.983 1009.08 108.253 1007.33 107.904C1005.58 107.555 1004 106.61 1002.87 105.228C1001.73 103.847 1001.11 102.115 1001.11 100.328C1001.11 99.3136 1001.31 98.3087 1001.7 97.3715C1002.09 96.4343 1002.66 95.5834 1003.38 94.868ZM1014.3 125.135C1013.22 126.215 1011.84 126.95 1010.34 127.248C1008.85 127.546 1007.29 127.393 1005.88 126.809C1004.47 126.224 1003.26 125.234 1002.42 123.965C1001.57 122.695 1001.11 121.202 1001.11 119.674C1001.11 118.147 1001.57 116.654 1002.42 115.384C1003.26 114.115 1004.47 113.125 1005.88 112.54C1007.29 111.956 1008.85 111.803 1010.34 112.101C1011.84 112.399 1013.22 113.134 1014.3 114.214C1015.02 114.927 1015.59 115.778 1015.99 116.715C1016.38 117.652 1016.58 118.658 1016.58 119.674C1016.58 120.691 1016.38 121.697 1015.99 122.634C1015.59 123.571 1015.02 124.421 1014.3 125.135ZM1018.51 112.483C1018.02 112.483 1017.54 112.337 1017.13 112.064C1016.72 111.791 1016.4 111.404 1016.22 110.95C1016.03 110.497 1015.98 109.998 1016.08 109.516C1016.17 109.035 1016.41 108.593 1016.76 108.246C1017.1 107.899 1017.54 107.662 1018.03 107.567C1018.51 107.471 1019.01 107.52 1019.46 107.708C1019.91 107.896 1020.3 108.214 1020.57 108.622C1020.85 109.03 1020.99 109.51 1020.99 110.001C1020.99 110.659 1020.73 111.291 1020.26 111.756C1019.8 112.222 1019.17 112.483 1018.51 112.483ZM1022.72 125.135C1021.46 123.872 1020.67 122.209 1020.5 120.431C1020.32 118.653 1020.77 116.87 1021.76 115.384C1022.75 113.899 1024.23 112.804 1025.94 112.285C1027.65 111.767 1029.49 111.857 1031.14 112.541C1032.79 113.225 1034.15 114.46 1034.99 116.035C1035.83 117.611 1036.1 119.43 1035.76 121.182C1035.41 122.934 1034.46 124.511 1033.08 125.644C1031.7 126.778 1029.97 127.397 1028.18 127.397C1026.13 127.396 1024.17 126.582 1022.72 125.135Z" fill="white"/>
<path d="M1172.51 40C1172.51 17.9086 1154.6 0 1132.51 0C1110.42 0 1092.51 17.9086 1092.51 40C1092.51 62.0914 1110.42 80 1132.51 80C1154.6 80 1172.51 62.0914 1172.51 40Z" fill="url(#paint12_linear_2_54464)"/>
<path d="M1134.65 21.471C1138.83 21.9509 1142.72 23.832 1145.7 26.808C1148.68 29.784 1150.56 33.6797 1151.04 37.861H1158.51C1158 31.7013 1155.33 25.9212 1150.96 21.5511C1146.59 17.181 1140.81 14.5049 1134.65 14V21.471Z" fill="#78F8E6"/>
<path d="M1118.01 51.537C1115.93 48.94 1114.6 45.8346 1114.13 42.5441C1113.66 39.2537 1114.09 35.8985 1115.36 32.8282C1116.63 29.7579 1118.7 27.0847 1121.36 25.0871C1124.02 23.0894 1127.16 21.8403 1130.46 21.47V14C1125.68 14.3806 1121.1 16.0745 1117.22 18.8947C1113.35 21.7148 1110.32 25.5516 1108.49 29.9814C1106.65 34.4112 1106.08 39.2618 1106.83 43.9977C1107.57 48.7336 1109.62 53.1706 1112.73 56.819L1118.01 51.537Z" fill="#A5FCDB"/>
<path d="M1151.04 42.0469C1150.67 45.3489 1149.42 48.491 1147.42 51.1462C1145.42 53.8013 1142.75 55.8722 1139.68 57.1434C1136.61 58.4146 1133.25 58.8394 1129.96 58.3738C1126.67 57.9082 1123.57 56.5691 1120.97 54.4959L1115.69 59.7789C1119.34 62.8898 1123.77 64.9322 1128.51 65.6805C1133.25 66.4289 1138.1 65.8541 1142.53 64.0196C1146.96 62.1852 1150.79 59.1624 1153.61 55.285C1156.43 51.4076 1158.13 46.8263 1158.51 42.0469H1151.04Z" fill="white"/>
<path d="M1140.65 31.8607C1140.81 32.0226 1140.94 32.2148 1141.03 32.4264C1141.12 32.6379 1141.16 32.8647 1141.16 33.0937C1141.16 33.3227 1141.12 33.5495 1141.03 33.7611C1140.94 33.9726 1140.81 34.1648 1140.65 34.3267L1126.84 48.1427C1126.51 48.4697 1126.06 48.6534 1125.6 48.6533C1125.14 48.6532 1124.7 48.4694 1124.37 48.1422C1124.04 47.8151 1123.86 47.3714 1123.86 46.9089C1123.86 46.4463 1124.04 46.0027 1124.37 45.6757L1138.18 31.8607C1138.34 31.6987 1138.54 31.5701 1138.75 31.4824C1138.96 31.3947 1139.19 31.3496 1139.41 31.3496C1139.64 31.3496 1139.87 31.3947 1140.08 31.4824C1140.29 31.5701 1140.49 31.6987 1140.65 31.8607" fill="white"/>
<path d="M1129.05 32.2708C1128.63 31.8478 1128.09 31.5597 1127.51 31.4429C1126.92 31.3262 1126.31 31.386 1125.76 31.6149C1125.21 31.8437 1124.73 32.2313 1124.4 32.7286C1124.07 33.226 1123.89 33.8106 1123.89 34.4088C1123.89 35.0069 1124.07 35.5916 1124.4 36.0889C1124.73 36.5862 1125.21 36.9738 1125.76 37.2027C1126.31 37.4315 1126.92 37.4914 1127.51 37.3746C1128.09 37.2579 1128.63 36.9698 1129.05 36.5468C1129.62 35.9797 1129.94 35.2106 1129.94 34.4088C1129.94 33.6069 1129.62 32.8379 1129.05 32.2708Z" fill="white"/>
<path d="M1140.24 43.4534C1139.81 43.0307 1139.28 42.7429 1138.69 42.6264C1138.1 42.5098 1137.5 42.5697 1136.94 42.7986C1136.39 43.0274 1135.92 43.4149 1135.59 43.912C1135.25 44.4091 1135.08 44.9935 1135.08 45.5914C1135.08 46.1892 1135.25 46.7736 1135.59 47.2707C1135.92 47.7678 1136.39 48.1553 1136.94 48.3841C1137.5 48.613 1138.1 48.6729 1138.69 48.5564C1139.28 48.4398 1139.81 48.152 1140.24 47.7294C1140.8 47.1623 1141.12 46.3932 1141.12 45.5914C1141.12 44.7895 1140.8 44.0204 1140.24 43.4534Z" fill="white"/>
<g filter="url(#filter1_d_2_54464)">
<path d="M1221.5 175.5C1221.5 139.878 1192.63 111 1157 111C1121.38 111 1092.5 139.878 1092.5 175.5C1092.5 211.122 1121.38 240 1157 240C1192.63 240 1221.5 211.122 1221.5 175.5Z" fill="white"/>
</g>
<path d="M1177.89 157.078C1177.51 157.078 1177.13 157.091 1176.75 157.109C1171.07 147.263 1160.82 140.691 1149.13 140.691C1131.25 140.691 1116.77 156.045 1116.77 174.982C1116.77 193.919 1131.25 209.273 1149.13 209.273H1177.89C1191.49 209.273 1202.52 197.589 1202.52 183.173C1202.52 168.757 1191.5 157.073 1177.89 157.073" fill="#00F7C0"/>
<path d="M1146.71 175.31C1159.66 175.31 1170.16 164.812 1170.16 151.861C1170.16 138.911 1159.66 128.412 1146.71 128.412C1133.76 128.412 1123.26 138.911 1123.26 151.861C1123.26 164.812 1133.76 175.31 1146.71 175.31Z" fill="url(#paint13_linear_2_54464)"/>
<path d="M1136.85 150.555L1146.71 140.691" stroke="white" stroke-width="4" stroke-linecap="round"/>
<path d="M1156.58 150.555L1146.71 140.691" stroke="white" stroke-width="4" stroke-linecap="round"/>
<path d="M1146.71 163.021V143.58" stroke="white" stroke-width="4" stroke-linecap="round"/>
<defs>
<filter id="filter0_d_2_54464" x="28.5059" y="150" width="141" height="141" filterUnits="userSpaceOnUse" color-interpolation-filters="sRGB">
<feFlood flood-opacity="0" result="BackgroundImageFix"/>
<feColorMatrix in="SourceAlpha" type="matrix" values="0 0 0 0 0 0 0 0 0 0 0 0 0 0 0 0 0 0 127 0" result="hardAlpha"/>
<feOffset/>
<feGaussianBlur stdDeviation="10"/>
<feColorMatrix type="matrix" values="0 0 0 0 0.8 0 0 0 0 0.894118 0 0 0 0 0.972549 0 0 0 0.702 0"/>
<feBlend mode="normal" in2="BackgroundImageFix" result="effect1_dropShadow_2_54464"/>
<feBlend mode="normal" in="SourceGraphic" in2="effect1_dropShadow_2_54464" result="shape"/>
</filter>
<filter id="filter1_d_2_54464" x="1072.5" y="91" width="169" height="169" filterUnits="userSpaceOnUse" color-interpolation-filters="sRGB">
<feFlood flood-opacity="0" result="BackgroundImageFix"/>
<feColorMatrix in="SourceAlpha" type="matrix" values="0 0 0 0 0 0 0 0 0 0 0 0 0 0 0 0 0 0 127 0" result="hardAlpha"/>
<feOffset/>
<feGaussianBlur stdDeviation="10"/>
<feColorMatrix type="matrix" values="0 0 0 0 0.603922 0 0 0 0 0.737255 0 0 0 0 0.85098 0 0 0 0.702 0"/>
<feBlend mode="normal" in2="BackgroundImageFix" result="effect1_dropShadow_2_54464"/>
<feBlend mode="normal" in="SourceGraphic" in2="effect1_dropShadow_2_54464" result="shape"/>
</filter>
<linearGradient id="paint0_linear_2_54464" x1="35.4961" y1="116.33" x2="-13.1539" y2="153.15" gradientUnits="userSpaceOnUse">
<stop stop-color="#46D0FB"/>
<stop offset="1" stop-color="#99F65C"/>
</linearGradient>
<linearGradient id="paint1_linear_2_54464" x1="122.408" y1="31.8" x2="215.878" y2="140.74" gradientUnits="userSpaceOnUse">
<stop stop-color="#2159F9"/>
<stop offset="1" stop-color="#0F0FFD" stop-opacity="0.459"/>
</linearGradient>
<linearGradient id="paint2_linear_2_54464" x1="117.508" y1="88" x2="135.508" y2="97" gradientUnits="userSpaceOnUse">
<stop stop-color="#047AF1"/>
<stop offset="1" stop-color="#44B2FB"/>
</linearGradient>
<linearGradient id="paint3_linear_2_54464" x1="185.508" y1="128" x2="197.508" y2="134" gradientUnits="userSpaceOnUse">
<stop stop-color="#047AF1"/>
<stop offset="1" stop-color="#44B2FB"/>
</linearGradient>
<linearGradient id="paint4_linear_2_54464" x1="196.278" y1="51" x2="177.378" y2="55.284" gradientUnits="userSpaceOnUse">
<stop stop-color="#7FEA8E"/>
<stop offset="1" stop-color="#14DFFF"/>
</linearGradient>
<linearGradient id="paint5_linear_2_54464" x1="99.6662" y1="223.068" x2="99.6662" y2="250.543" gradientUnits="userSpaceOnUse">
<stop stop-color="#45CCFF"/>
<stop offset="1" stop-color="#0066DE"/>
</linearGradient>
<linearGradient id="paint6_linear_2_54464" x1="99.6655" y1="208.035" x2="99.6655" y2="225.661" gradientUnits="userSpaceOnUse">
<stop stop-color="#45CCFF"/>
<stop offset="1" stop-color="#0066DE"/>
</linearGradient>
<linearGradient id="paint7_linear_2_54464" x1="115.046" y1="202.281" x2="115.046" y2="231.412" gradientUnits="userSpaceOnUse">
<stop stop-color="#58D7FF"/>
<stop offset="1" stop-color="#0469DE"/>
</linearGradient>
<linearGradient id="paint8_linear_2_54464" x1="84.2914" y1="202.283" x2="84.2914" y2="231.412" gradientUnits="userSpaceOnUse">
<stop stop-color="#58D7FF"/>
<stop offset="1" stop-color="#0469DE"/>
</linearGradient>
<linearGradient id="paint9_linear_2_54464" x1="125.515" y1="193.602" x2="125.515" y2="240.088" gradientUnits="userSpaceOnUse">
<stop stop-color="#45ECFF"/>
<stop offset="1" stop-color="#00BAFF"/>
</linearGradient>
<linearGradient id="paint10_linear_2_54464" x1="73.8106" y1="193.605" x2="73.8106" y2="240.087" gradientUnits="userSpaceOnUse">
<stop stop-color="#45ECFF"/>
<stop offset="1" stop-color="#00BAFF"/>
</linearGradient>
<linearGradient id="paint11_linear_2_54464" x1="996.508" y1="65" x2="1068.51" y2="166" gradientUnits="userSpaceOnUse">
<stop stop-color="#46D0FB"/>
<stop offset="1" stop-color="#99F65C"/>
</linearGradient>
<linearGradient id="paint12_linear_2_54464" x1="1098.67" y1="8.24" x2="1172.51" y2="75.04" gradientUnits="userSpaceOnUse">
<stop stop-color="#7FF9DC"/>
<stop offset="1" stop-color="#02ADD1"/>
</linearGradient>
<linearGradient id="paint13_linear_2_54464" x1="1146.71" y1="128.412" x2="1146.71" y2="175.31" gradientUnits="userSpaceOnUse">
<stop stop-color="#0433F1"/>
<stop offset="1" stop-color="#188CF4"/>
</linearGradient>
</defs>
</svg>
