<svg xmlns="http://www.w3.org/2000/svg"  viewBox="0 0 50 50">
  <g id="icon_image" transform="translate(-716 -765)">
    <path id="사각형_618" data-name="사각형 618" d="M0,0H50a0,0,0,0,1,0,0V47a3,3,0,0,1-3,3H3a3,3,0,0,1-3-3V0A0,0,0,0,1,0,0Z" transform="translate(716 765)" fill="#fcdba9"/>
    <rect id="사각형_617" data-name="사각형 617" width="50" height="16" transform="translate(716 765)" fill="#ee7f00"/>
    <text id="image" transform="translate(741 776)" fill="#fff" font-size="9" font-family="SegoeUI, Segoe UI" letter-spacing="0.1em"><tspan x="-15.217" y="0">IMAGE</tspan></text>
    <rect id="사각형_614" data-name="사각형 614" width="24" height="24" rx="12" transform="translate(729 786)" fill="#fff"/>
    <g id="그룹_390" data-name="그룹 390" transform="translate(731.334 787)">
      <path id="패스_331" data-name="패스 331" d="M.629,14.562,5.793,9.4l6.439,6.439" fill="none" stroke="#231f20" stroke-linecap="round" stroke-linejoin="round" stroke-width="1.5"/>
      <path id="패스_332" data-name="패스 332" d="M10.35,13.054,13.6,9.805l5.1,5.105" fill="none" stroke="#231f20" stroke-linecap="round" stroke-linejoin="round" stroke-width="1.5"/>
      <path id="패스_333" data-name="패스 333" d="M15.346,5.141a1.393,1.393,0,1,0-1.392,1.392A1.392,1.392,0,0,0,15.346,5.141Z" fill="none" stroke="#231f20" stroke-linecap="round" stroke-linejoin="round" stroke-width="1.5"/>
    </g>
  </g>
</svg>
