<svg xmlns="http://www.w3.org/2000/svg" xmlns:xlink="http://www.w3.org/1999/xlink" width="1251.012" height="301" viewBox="0 0 1251.012 301"><defs><style>.a,.g,.h,.u{fill:none;}.b{fill:url(#a);}.c{clip-path:url(#b);}.d{fill:#fff;}.e{fill:url(#c);}.f{fill:#75d5ff;}.g{stroke:#6bc7ef;}.g,.h,.u{stroke-linecap:round;stroke-width:4px;}.g,.h{stroke-linejoin:round;}.h{stroke:#e8fff1;}.i{fill:#024ac6;}.j{fill:url(#d);}.k{fill:url(#f);}.l{fill:url(#i);}.m{fill:url(#k);}.n{fill:url(#m);}.o{fill:url(#o);}.p{fill:url(#p);}.q{fill:#78f8e6;}.r{fill:#a5fcdb;}.s{fill:#00f7c0;}.t{fill:url(#s);}.u{stroke:#fff;}.v{filter:url(#q);}.w{filter:url(#g);}</style><linearGradient id="a" x1="0.5" y1="0.569" x2="-0.195" y2="1.095" gradientUnits="objectBoundingBox"><stop offset="0" stop-color="#46d0fb"/><stop offset="1" stop-color="#99f65c"/></linearGradient><clipPath id="b"><rect class="a" width="70.012" height="70.012" transform="translate(0 0)"/></clipPath><linearGradient id="c" x1="0.13" y1="0.06" x2="0.849" y2="0.898" gradientUnits="objectBoundingBox"><stop offset="0" stop-color="#2159f9"/><stop offset="1" stop-color="#0f0ffd" stop-opacity="0.459"/></linearGradient><linearGradient id="d" y1="0.5" x2="1" y2="1" gradientUnits="objectBoundingBox"><stop offset="0" stop-color="#047af1"/><stop offset="1" stop-color="#44b2fb"/></linearGradient><linearGradient id="f" x1="0.765" y1="0.5" x2="-0.285" y2="0.738" gradientUnits="objectBoundingBox"><stop offset="0" stop-color="#7fea8e"/><stop offset="1" stop-color="#14dfff"/></linearGradient><filter id="g" x="18.012" y="140" width="161" height="161" filterUnits="userSpaceOnUse"><feOffset input="SourceAlpha"/><feGaussianBlur stdDeviation="10" result="h"/><feFlood flood-color="#cce4f8" flood-opacity="0.702"/><feComposite operator="in" in2="h"/><feComposite in="SourceGraphic"/></filter><linearGradient id="i" x1="0.5" x2="0.5" y2="1" gradientUnits="objectBoundingBox"><stop offset="0" stop-color="#45ccff"/><stop offset="1" stop-color="#0066de"/></linearGradient><linearGradient id="k" x1="0.5" x2="0.5" y2="1" gradientUnits="objectBoundingBox"><stop offset="0" stop-color="#58d7ff"/><stop offset="1" stop-color="#0469de"/></linearGradient><linearGradient id="m" x1="0.5" x2="0.5" y2="1" gradientUnits="objectBoundingBox"><stop offset="0" stop-color="#45ecff"/><stop offset="1" stop-color="#00baff"/></linearGradient><linearGradient id="o" x1="0.28" y1="0.04" x2="1" y2="1.05" xlink:href="#a"/><linearGradient id="p" x1="0.077" y1="0.103" x2="1" y2="0.938" gradientUnits="objectBoundingBox"><stop offset="0" stop-color="#7ff9dc"/><stop offset="1" stop-color="#02add1"/></linearGradient><filter id="q" x="1062.012" y="81" width="189" height="189" filterUnits="userSpaceOnUse"><feOffset input="SourceAlpha"/><feGaussianBlur stdDeviation="10" result="r"/><feFlood flood-color="#9abcd9" flood-opacity="0.702"/><feComposite operator="in" in2="r"/><feComposite in="SourceGraphic"/></filter><linearGradient id="s" x1="0.5" x2="0.5" y2="1" gradientUnits="objectBoundingBox"><stop offset="0" stop-color="#0433f1"/><stop offset="1" stop-color="#188cf4"/></linearGradient></defs><g transform="translate(-419.988 -99)"><g transform="translate(419.988 174.5)"><rect class="b" width="70" height="70" rx="35" transform="translate(0 1)"/><g class="c"><path class="d" d="M35.006,17.166A14.288,14.288,0,0,0,20.717,31.455c0,7.892,14.289,21.391,14.289,21.391s14.289-13.5,14.289-21.391A14.288,14.288,0,0,0,35.006,17.166m0,20.528a6.239,6.239,0,1,1,6.239-6.239,6.239,6.239,0,0,1-6.239,6.239"/></g></g><g transform="translate(558.568 146)"><rect class="e" width="130" height="130" rx="65" transform="translate(-33.568 -23)"/><path class="f" d="M16.012,4.293c-.1,0-.2,0-.3.008A8.384,8.384,0,0,0,8.477,0,8.741,8.741,0,0,0,0,8.982a8.741,8.741,0,0,0,8.477,8.982h7.535a6.652,6.652,0,0,0,6.452-6.836,6.652,6.652,0,0,0-6.452-6.836" transform="translate(20.337 32)"/><g transform="translate(-17.093 -1.055)"><circle class="g" cx="26.737" cy="26.737" r="26.737" transform="translate(21.787 16.111)"/><path class="h" d="M70.844,64.231a20.626,20.626,0,1,1,4.115-5.48" transform="translate(-8.07 -6.428)"/><line class="g" x1="3.875" y1="6.712" transform="translate(31.178 13.01)"/><line class="g" x2="3.875" y2="6.712" transform="translate(61.996 66.389)"/><line class="g" x1="7.75" transform="translate(13.83 43.055)"/><line class="g" x2="7.75" transform="translate(75.469 43.055)"/><line class="g" x1="3.875" y2="6.712" transform="translate(31.178 66.389)"/><line class="g" y1="6.712" x2="3.875" transform="translate(61.996 13.01)"/></g><circle class="i" cx="6.5" cy="6.5" r="6.5" transform="translate(70.432 36)"/><circle class="i" cx="6.5" cy="6.5" r="6.5" transform="translate(1.432 77)"/><circle class="j" cx="9" cy="9" r="9" transform="translate(-21.568 32)"/><circle class="i" cx="6" cy="6" r="6" transform="translate(4.432 1)"/><circle class="j" cx="6" cy="6" r="6" transform="translate(46.432 75)"/><circle class="k" cx="9" cy="9" r="9" transform="translate(43.432 -5)"/></g><g transform="translate(501.568 292)"><g class="w" transform="matrix(1, 0, 0, 1, -81.58, -193)"><rect class="d" width="101" height="101" rx="50.5" transform="translate(48.01 170)"/></g><g transform="translate(-15.279 0.606)"><rect class="l" width="6.223" height="27.475" transform="translate(29.757 29.462)"/><path class="l" d="M35.789,33.805A8.813,8.813,0,1,1,44.6,24.992a8.823,8.823,0,0,1-8.813,8.813m0-11.4a2.591,2.591,0,1,0,2.592,2.591A2.594,2.594,0,0,0,35.789,22.4" transform="translate(-2.919 -1.75)"/><path class="m" d="M52.656,38.859l-4.4-4.4a14.376,14.376,0,0,0,0-20.331l4.4-4.4a20.594,20.594,0,0,1,0,29.129" transform="translate(-5.224 -1.053)"/><path class="m" d="M19.795,38.859a20.622,20.622,0,0,1,0-29.129l4.4,4.4a14.392,14.392,0,0,0,0,20.331Z" transform="translate(-1.49 -1.053)"/><path class="n" d="M62.389,46.482l-4.4-4.4a26.679,26.679,0,0,0,0-37.686l4.4-4.4a32.906,32.906,0,0,1,0,46.482" transform="translate(-6.276)"/><path class="n" d="M9.628,46.482A32.865,32.865,0,0,1,9.627,0l4.4,4.4a26.648,26.648,0,0,0,0,37.686Z"/></g></g><g transform="translate(44 -108)"><rect class="o" width="100" height="100" rx="50" transform="translate(1344 268)"/><path class="d" d="M55.5,27.751A27.751,27.751,0,1,0,26.221,55.458V55.5H55.5V51.324H42.372A27.754,27.754,0,0,0,55.5,27.751M31.964,12.618a7.721,7.721,0,1,1-2.262,5.46,7.666,7.666,0,0,1,2.262-5.46m-19.346,0a7.724,7.724,0,1,1-2.261,5.46,7.671,7.671,0,0,1,2.261-5.46M23.539,42.885a7.722,7.722,0,1,1,0-10.921,7.669,7.669,0,0,1,0,10.921m4.212-12.652a2.482,2.482,0,1,1,2.483-2.482,2.483,2.483,0,0,1-2.483,2.482m4.213,12.652a7.722,7.722,0,1,1,5.46,2.262,7.733,7.733,0,0,1-5.46-2.262" transform="translate(1366.25 289.25)"/></g><g transform="translate(1527 113)"><rect class="p" width="80" height="80" rx="40" transform="translate(-15 -14)"/><g transform="translate(-1)"><path class="q" d="M33.746,7.471a18.638,18.638,0,0,1,16.391,16.39h7.471A26.08,26.08,0,0,0,33.746,0Z" transform="translate(-5.607)"/><path class="r" d="M11.5,37.537A18.586,18.586,0,0,1,23.953,7.47V0A26.019,26.019,0,0,0,6.22,42.819Z"/><path class="d" d="M46.359,33.636A18.586,18.586,0,0,1,16.293,46.085l-5.282,5.283A26.019,26.019,0,0,0,53.83,33.636Z" transform="translate(-1.83 -5.589)"/><path class="d" d="M37.6,21.318a1.743,1.743,0,0,1,0,2.466L23.784,37.6a1.744,1.744,0,0,1-2.466-2.467L35.13,21.318a1.744,1.744,0,0,1,2.467,0" transform="translate(-3.457 -3.457)"/><path class="d" d="M26.011,21.736a3.024,3.024,0,1,0,0,4.276,3.024,3.024,0,0,0,0-4.276" transform="translate(-3.465 -3.465)"/><path class="d" d="M39.422,35.146a3.023,3.023,0,1,0,0,4.276,3.024,3.024,0,0,0,0-4.276" transform="translate(-5.693 -5.693)"/></g></g><g transform="translate(95.017 36.7)"><g class="v" transform="matrix(1, 0, 0, 1, 324.97, 62.3)"><rect class="d" width="129" height="129" rx="64.5" transform="translate(1092.01 111)"/></g><path class="s" d="M61.128,16.387c-.385,0-.765.013-1.145.031C54.3,6.572,44.054,0,32.362,0,14.488,0,0,15.354,0,34.291S14.488,68.582,32.362,68.582H61.128c13.6,0,24.63-11.684,24.63-26.1s-11.028-26.1-24.63-26.1" transform="translate(1441.241 202.991)"/><circle class="t" cx="23.449" cy="23.449" r="23.449" transform="translate(1447.737 190.713)"/><path class="u" d="M0,0H13.95" transform="translate(1461.323 212.855) rotate(-45)"/><path class="u" d="M0,0H13.95" transform="translate(1481.05 212.855) rotate(-135)"/><path class="u" d="M0,0H19.441" transform="translate(1471.187 225.321) rotate(-90)"/></g></g></svg>