<svg xmlns="http://www.w3.org/2000/svg" width="130" height="100" viewBox="0 0 130 100"><defs><style>.a{fill:none;stroke:#192579;stroke-linecap:round;stroke-linejoin:round;stroke-width:3px;}.b{fill:#d2e6fc;}.c{fill:#192579;}.d{fill:#62a0d6;}.e{fill:#ff9a9a;opacity:0;}</style></defs><g transform="translate(39 4)"><g transform="translate(-8 5)"><line class="a" x2="2.96" transform="translate(14.219 26.217)"/><line class="a" x2="11.528" transform="translate(25.766 26.217)"/><line class="a" x2="23.073" transform="translate(14.219 37.27)"/><line class="a" x2="23.073" transform="translate(14.219 45.127)"/><path class="a" d="M5.339,0H51.9a5.34,5.34,0,0,1,5.34,5.34V75.367a5.34,5.34,0,0,1-5.34,5.34H5.34A5.34,5.34,0,0,1,0,75.367V5.339A5.339,5.339,0,0,1,5.339,0Z" transform="translate(1.5 1.5)"/><path class="a" d="M42.488,3.7h0a8.358,8.358,0,0,1-8.358,8.358H26.106A8.358,8.358,0,0,1,17.749,3.7"/><path class="a" d="M58.737,16.675l7.031,53.68c0,4.546-2.744,8.232-6.13,8.232"/><path class="b" d="M45.844,41.854A16.409,16.409,0,1,1,62.253,58.263,16.409,16.409,0,0,1,45.844,41.854"/><path class="c" d="M71.6,43.345H52.9a1.471,1.471,0,1,1,0-2.942H71.6a1.471,1.471,0,0,1,0,2.942"/><path class="c" d="M66.195,49.072a1.469,1.469,0,0,1-1.39-.992l-2.554-7.416L59.7,48.08a1.47,1.47,0,0,1-2.78,0L52.976,36.624a1.471,1.471,0,1,1,2.781-.957l2.552,7.414,2.552-7.414a1.47,1.47,0,0,1,2.781,0l2.553,7.416,2.553-7.415a1.47,1.47,0,1,1,2.78.957L67.585,48.08a1.468,1.468,0,0,1-1.39.992"/><path class="d" d="M31.922,63.32H15.817a3.484,3.484,0,1,1,0-6.968H31.922a3.484,3.484,0,0,1,0,6.968"/><rect class="e" width="130" height="100" transform="translate(-31 -9)"/></g></g></svg>