<svg  viewBox="0 0 60 60" fill="none" xmlns="http://www.w3.org/2000/svg">
<path d="M9.43994 42.1248L24.1579 23.7578L37.2239 42.1248" stroke="white" stroke-width="3" stroke-linecap="round" stroke-linejoin="round"/>
<path d="M32.8252 35.1814L39.8652 26.1934L49.4912 38.4074" stroke="white" stroke-width="3" stroke-linecap="round" stroke-linejoin="round"/>
<path d="M6.5249 1.52539H52.4729C53.799 1.52539 55.0708 2.05217 56.0084 2.98986C56.9461 3.92754 57.4729 5.19931 57.4729 6.52539L57.8609 45.1114C57.8609 46.3114 46.4059 57.4734 44.8429 57.4734H6.5249C5.19882 57.4734 3.92705 56.9466 2.98937 56.0089C2.05169 55.0712 1.5249 53.7995 1.5249 52.4734L1.5249 6.52539C1.5249 5.19931 2.05169 3.92754 2.98937 2.98986C3.92705 2.05217 5.19882 1.52539 6.5249 1.52539Z" stroke="white" stroke-width="3" stroke-linecap="round"/>
<path d="M46.674 45.502H57.863C58.511 45.502 45.502 58.096 45.502 57.449V46.674C45.502 46.3631 45.6254 46.065 45.8452 45.8452C46.065 45.6254 46.3631 45.502 46.674 45.502Z" stroke="white" stroke-width="3" stroke-linecap="round"/>
<path d="M46.8311 15.6915C46.8315 14.8507 46.5825 14.0287 46.1156 13.3295C45.6488 12.6303 44.9851 12.0853 44.2084 11.7633C43.4317 11.4414 42.577 11.3571 41.7524 11.521C40.9278 11.6849 40.1703 12.0898 39.5759 12.6843C38.9814 13.2787 38.5765 14.0362 38.4126 14.8608C38.2487 15.6854 38.333 16.5401 38.655 17.3168C38.9769 18.0935 39.5219 18.7572 40.2211 19.224C40.9203 19.6909 41.7423 19.9399 42.5831 19.9395C43.7096 19.9392 44.79 19.4915 45.5866 18.695C46.3831 17.8984 46.8308 16.818 46.8311 15.6915Z" stroke="white" stroke-width="3" stroke-linecap="round" stroke-linejoin="round"/>
</svg>
