<svg xmlns="http://www.w3.org/2000/svg" width="104" height="30" viewBox="0 0 104 30">
  <g id="logo_img" transform="translate(-80 -35)">
    <rect id="box" width="104" height="30" transform="translate(80 35)" fill="#00ff5d" opacity="0"/>
    <g id="하남시_로고" data-name="하남시 로고" transform="translate(81.641 35.188)">
      <path id="패스_1" data-name="패스 1" d="M128.438,23.433h-2.213a1.731,1.731,0,0,0-1.858,1.925c.012.256,0,15.688,0,15.688h4.071l0-8.847h2.711V30.714h-2.711Z" transform="translate(-82.532 -15.55)" fill="#1a1818"/>
      <path id="패스_2" data-name="패스 2" d="M82.571,37.2c-3.633,0-6.577,2.662-6.577,5.946s2.945,5.946,6.577,5.946,6.577-2.662,6.577-5.946S86.2,37.2,82.571,37.2m-.007,10.531c-1.641,0-2.969-2.05-2.969-4.579s1.329-4.579,2.969-4.579,2.969,2.051,2.969,4.579-1.329,4.579-2.969,4.579" transform="translate(-50.431 -24.687)" fill="#1a1818"/>
      <path id="패스_3" data-name="패스 3" d="M83.324,23.433H79.247l.009,2.027H73.979v1.549h14.57V25.46H83.333Z" transform="translate(-49.094 -15.55)" fill="#1a1818"/>
      <path id="패스_4" data-name="패스 4" d="M169.77,32.214V30.727h-8.685V23.455H157v6.664c0,.354.187,2.095,2.886,2.095Z" transform="translate(-104.191 -15.565)" fill="#1a1818"/>
      <rect id="사각형_2" data-name="사각형 2" width="4.081" height="17.608" transform="translate(94.599 7.885)" fill="#1a1818"/>
      <path id="패스_5" data-name="패스 5" d="M239.05,34.669c-1.128-1.961-1.007-6.506-1.007-6.506V23.439h-4.085v4.725s.12,4.544-1.007,6.506a9.5,9.5,0,0,1-4.47,4.051v2.087a7.9,7.9,0,0,0,5.081-1.657A10.425,10.425,0,0,0,236,35.909a10.416,10.416,0,0,0,2.439,3.241,7.9,7.9,0,0,0,5.081,1.657V38.721a9.5,9.5,0,0,1-4.47-4.051" transform="translate(-151.623 -15.554)" fill="#1a1818"/>
      <path id="패스_6" data-name="패스 6" d="M206.348,24.948V23.439h-2a2.438,2.438,0,0,0-2.069,2.531c0,1.045-.006,4.245-.011,6.233h6.813V30.694h-2.735Z" transform="translate(-134.23 -15.554)" fill="#1a1818"/>
      <path id="패스_7" data-name="패스 7" d="M160.271,59.385c0,.93.845,2.212,1.908,2.212h16.3V54.406H160.271Zm4.082-3.5H174.4v4.232H164.353Z" transform="translate(-106.359 -36.104)" fill="#1a1818"/>
      <path id="패스_8" data-name="패스 8" d="M28.362,5.037c-1.195,1.775-3.044,2.547-4.13,1.723s-1-2.932.2-4.707S27.471-.493,28.558.33s1,2.932-.2,4.707" transform="translate(-15.576 0)" fill="#ef5413"/>
      <path id="패스_9" data-name="패스 9" d="M7,21.463c.091-.031.183-.06.27-.094.192-.074.384-.145.578-.209A12.4,12.4,0,0,1,9.737,20.7a8.978,8.978,0,0,1,1.3-.119,7.818,7.818,0,0,1,1.667.075,4.121,4.121,0,0,0-1.657-1.427,2.85,2.85,0,0,0-2.384.043,4.483,4.483,0,0,0-1.152.923,5.074,5.074,0,0,0-.95,1.448A2.878,2.878,0,0,1,7,21.463" transform="translate(-4.355 -12.598)" fill="#009a3c"/>
      <path id="패스_10" data-name="패스 10" d="M10.264,24.555c.272.064.542.15.807.238a6.612,6.612,0,0,1,1.532.712,8.818,8.818,0,0,1,1.09.906,5.578,5.578,0,0,1,.917,1.046,7.212,7.212,0,0,1,.759,1.523,6.172,6.172,0,0,1,.28,1.147,5.962,5.962,0,0,1-.1,2.156,6.237,6.237,0,0,1-2.927,4.047,7.2,7.2,0,0,1-5.888.811,4.755,4.755,0,0,1-1.312-.658,4.745,4.745,0,0,1-.806-.818c-.055-.07-.109-.141-.162-.214a4.509,4.509,0,0,1-.7-2.943,5.466,5.466,0,0,1,.535-1.574,3.342,3.342,0,0,1,1.633-1.383,3.393,3.393,0,0,1,1.951-.175A3.623,3.623,0,0,1,9.931,30.59a4.111,4.111,0,0,1,.3.39,2.938,2.938,0,0,1,.424,1.531,3.248,3.248,0,0,1-.606,1.833A3.038,3.038,0,0,1,8.688,35.41a4.681,4.681,0,0,1-1.344.3,1.672,1.672,0,0,0,.509.023c.167,0,.333-.014.5-.031a8.385,8.385,0,0,0,1.1-.169,4.214,4.214,0,0,0,.8-.275c.135-.062.325-.175.454-.248a4.1,4.1,0,0,0,2.307-3.2,5.555,5.555,0,0,0-.552-2.832,5.182,5.182,0,0,0-1.588-1.941c-.1-.076-.2-.15-.3-.219a6.115,6.115,0,0,0-3.142-1.1A7.827,7.827,0,0,0,5.5,25.78a5.365,5.365,0,0,0-1.147.363c-.2.086-.4.181-.6.279a5.829,5.829,0,0,0-1.542,1.107c-.146.145-.28.3-.415.454A8.54,8.54,0,0,0,.586,30.052a6.829,6.829,0,0,0-.513,1.985,8.76,8.76,0,0,0,.12,2.9,8.211,8.211,0,0,0,1.036,2.521c.056.1.119.19.175.288a6.73,6.73,0,0,0,1.366,1.623,9.177,9.177,0,0,0,.736.638,8.958,8.958,0,0,0,2,1.13,12.865,12.865,0,0,0,1.939.65,9.638,9.638,0,0,0,1.7.179c.183.007.367.007.551.016a9.092,9.092,0,0,0,2.576-.345A12.326,12.326,0,0,0,14.9,40.519,9.7,9.7,0,0,0,16.86,38.9a8,8,0,0,0,2.064-3.835c.059-.232.112-.466.149-.7a8.57,8.57,0,0,0-.121-2.867,8.163,8.163,0,0,0-.924-2.369,8.047,8.047,0,0,0-1.57-2.036c-.105-.1-.212-.2-.324-.284a11.308,11.308,0,0,0-1.818-1.24,9.71,9.71,0,0,0-2.091-.819,16.689,16.689,0,0,0-1.98-.345,4.388,4.388,0,0,0-.96-.011,5.518,5.518,0,0,1,.98.161" transform="translate(0 -16.174)" fill="#004195"/>
    </g>
  </g>
</svg>
