<svg xmlns="http://www.w3.org/2000/svg" width="102.576" height="26.831" viewBox="0 0 102.576 26.831"><defs><style>.a{fill:#fff;}</style></defs><g transform="translate(0 0)"><path class="a" d="M128.6,23.433h-2.3a1.8,1.8,0,0,0-1.932,2c.012.266,0,16.307,0,16.307H128.6l0-9.2h2.818V31H128.6Z" transform="translate(-80.881 -15.239)"/><path class="a" d="M82.831,37.2c-3.776,0-6.837,2.767-6.837,6.18s3.061,6.18,6.837,6.18,6.837-2.767,6.837-6.18-3.061-6.18-6.837-6.18m-.007,10.947c-1.705,0-3.086-2.131-3.086-4.76s1.381-4.76,3.086-4.76,3.086,2.132,3.086,4.76-1.382,4.76-3.086,4.76" transform="translate(-49.422 -24.193)"/><path class="a" d="M83.693,23.433H79.455l.01,2.107H73.979v1.61H89.124V25.54H83.7Z" transform="translate(-48.111 -15.239)"/><path class="a" d="M170.274,32.559V31.014h-9.028V23.455H157v6.927c0,.368.195,2.177,3,2.177Z" transform="translate(-102.106 -15.253)"/><rect class="a" width="4.242" height="18.303" transform="translate(98.333 8.197)"/><path class="a" d="M239.467,35.113c-1.172-2.039-1.047-6.762-1.047-6.762V23.439h-4.247v4.912s.125,4.723-1.047,6.762c-.827,1.595-3.057,3.764-4.646,4.211v2.169a8.211,8.211,0,0,0,5.281-1.723A10.836,10.836,0,0,0,236.3,36.4a10.827,10.827,0,0,0,2.535,3.369,8.211,8.211,0,0,0,5.281,1.723V39.324c-1.588-.447-3.819-2.616-4.646-4.211" transform="translate(-148.589 -15.243)"/><path class="a" d="M206.509,25.007V23.439h-2.077a2.534,2.534,0,0,0-2.151,2.631c0,1.086-.007,4.412-.011,6.479h7.082V30.981h-2.843Z" transform="translate(-131.544 -15.243)"/><path class="a" d="M160.271,59.582c0,.967.879,2.3,1.983,2.3H179.2V54.406H160.271Zm4.243-3.642h10.439v4.4H164.514Z" transform="translate(-104.23 -35.382)"/><path class="a" d="M28.555,5.236c-1.242,1.845-3.164,2.647-4.293,1.791s-1.038-3.047.2-4.893S27.629-.513,28.758.343s1.038,3.048-.2,4.893" transform="translate(-15.264 0)"/><path class="a" d="M7.02,21.562c.1-.032.19-.063.281-.1.2-.076.4-.15.6-.216a12.886,12.886,0,0,1,1.961-.484,9.382,9.382,0,0,1,1.352-.124,8.1,8.1,0,0,1,1.733.078,4.281,4.281,0,0,0-1.722-1.483,2.962,2.962,0,0,0-2.478.045,4.66,4.66,0,0,0-1.2.959,5.274,5.274,0,0,0-.987,1.5,2.992,2.992,0,0,1,.458-.182" transform="translate(-4.268 -12.347)"/><path class="a" d="M10.669,24.562c.283.066.563.156.839.248a6.873,6.873,0,0,1,1.593.74,9.167,9.167,0,0,1,1.133.942,5.789,5.789,0,0,1,.953,1.088,7.486,7.486,0,0,1,.788,1.583,6.416,6.416,0,0,1,.291,1.192,6.2,6.2,0,0,1-.1,2.241A6.483,6.483,0,0,1,13.121,36.8,7.487,7.487,0,0,1,7,37.647a4.943,4.943,0,0,1-1.364-.684,4.932,4.932,0,0,1-.838-.85c-.057-.073-.114-.147-.168-.222a4.687,4.687,0,0,1-.724-3.059A5.682,5.682,0,0,1,4.462,31.2a3.474,3.474,0,0,1,1.7-1.437,3.527,3.527,0,0,1,2.028-.182,3.766,3.766,0,0,1,2.135,1.259,4.274,4.274,0,0,1,.314.4,3.053,3.053,0,0,1,.441,1.591,3.376,3.376,0,0,1-.63,1.9,3.158,3.158,0,0,1-1.418,1.109,4.866,4.866,0,0,1-1.4.314,1.738,1.738,0,0,0,.529.024c.173,0,.346-.014.518-.033a8.716,8.716,0,0,0,1.147-.176,4.38,4.38,0,0,0,.83-.286c.14-.064.337-.181.472-.258a4.263,4.263,0,0,0,2.4-3.327,5.774,5.774,0,0,0-.573-2.944,5.387,5.387,0,0,0-1.65-2.018c-.1-.079-.2-.156-.311-.227a6.357,6.357,0,0,0-3.266-1.147,8.136,8.136,0,0,0-2.011.067,5.577,5.577,0,0,0-1.193.377c-.209.09-.416.188-.621.29a6.059,6.059,0,0,0-1.6,1.151c-.151.151-.291.311-.431.472a8.877,8.877,0,0,0-1.26,2.151A7.1,7.1,0,0,0,.076,32.34,9.106,9.106,0,0,0,.2,35.357a8.535,8.535,0,0,0,1.077,2.621c.058.1.124.2.181.3a7,7,0,0,0,1.42,1.687,9.54,9.54,0,0,0,.765.664A9.311,9.311,0,0,0,5.72,41.8a13.372,13.372,0,0,0,2.015.676,10.019,10.019,0,0,0,1.763.186c.191.008.382.008.573.017a9.451,9.451,0,0,0,2.678-.358,12.811,12.811,0,0,0,2.741-1.165,10.084,10.084,0,0,0,2.037-1.681,8.315,8.315,0,0,0,2.145-3.986c.061-.241.117-.484.155-.731a8.9,8.9,0,0,0-.126-2.98,8.484,8.484,0,0,0-.961-2.463A8.365,8.365,0,0,0,17.107,27.2c-.109-.1-.22-.2-.337-.3a11.754,11.754,0,0,0-1.89-1.288,10.093,10.093,0,0,0-2.174-.852,17.348,17.348,0,0,0-2.058-.358,4.561,4.561,0,0,0-1-.011,5.736,5.736,0,0,1,1.019.168" transform="translate(0 -15.85)"/></g></svg>