<svg xmlns="http://www.w3.org/2000/svg" width="427" height="186" viewBox="0 0 427 186"><defs><style>.a{fill:#ff8000;}.b{fill:none;stroke:#ff8000;stroke-width:3px;}</style></defs><g transform="translate(-416 -1312)"><circle class="a" cx="4" cy="4" r="4" transform="translate(416 1490)"/><circle class="a" cx="4" cy="4" r="4" transform="translate(487 1426)"/><circle class="a" cx="4" cy="4" r="4" transform="translate(557 1377)"/><circle class="a" cx="4" cy="4" r="4" transform="translate(626 1364)"/><circle class="a" cx="4" cy="4" r="4" transform="translate(697 1335)"/><circle class="a" cx="4" cy="4" r="4" transform="translate(770 1326)"/><circle class="a" cx="4" cy="4" r="4" transform="translate(835 1312)"/><line class="b" y1="66" x2="72" transform="translate(419.5 1429.5)"/><line class="b" y1="49" x2="70" transform="translate(491.5 1380.5)"/><line class="b" y1="13" x2="69" transform="translate(561.5 1367.5)"/><line class="b" y1="29" x2="70" transform="translate(630.5 1338.5)"/><line class="b" y1="8" x2="70" transform="translate(700.5 1330.5)"/><line class="b" y1="14" x2="69" transform="translate(770.5 1316.5)"/></g></svg>